<svg xmlns="http://www.w3.org/2000/svg" width="765" height="374" viewBox="0 0 765 374">
  <g id="Grupo_65351" data-name="Grupo 65351" transform="translate(-418 -5809)">
    <g id="Grupo_65360" data-name="Grupo 65360">
      <path id="Trazado_27795" data-name="Trazado 27795" d="M0,0H765V374H0Z" transform="translate(418 5809)" fill="#e9f5f3"/>
      <path id="Trazado_27798" data-name="Trazado 27798" d="M129.173,132.058h-5.027v4.052h4.43v1.415h-4.43v4.043h5.027V143h-6.635V130.625h6.636Zm5.353,11.109a4.1,4.1,0,0,1-2.329-.624,2.581,2.581,0,0,1-1.134-1.775l1.327-.378a1.854,1.854,0,0,0,.708,1.2,2.3,2.3,0,0,0,1.419.426,2.85,2.85,0,0,0,.831-.114,1.333,1.333,0,0,0,.637-.426,1.187,1.187,0,0,0,.185-1.143,1.521,1.521,0,0,0-.141-.286.882.882,0,0,0-.246-.237,3.312,3.312,0,0,0-.3-.185,3.041,3.041,0,0,0-.391-.163q-.259-.092-.417-.141t-.483-.141c-.217-.061-.383-.11-.5-.145a9.223,9.223,0,0,1-.9-.316,3.927,3.927,0,0,1-.729-.417,1.676,1.676,0,0,1-.567-.681,2.3,2.3,0,0,1-.189-.967,2.237,2.237,0,0,1,.422-1.38,2.373,2.373,0,0,1,1.094-.813,4.377,4.377,0,0,1,1.534-.25,3.748,3.748,0,0,1,2.1.563,2.4,2.4,0,0,1,1.05,1.688l-1.248.316a1.655,1.655,0,0,0-.659-1.094,2.1,2.1,0,0,0-1.239-.365,2.139,2.139,0,0,0-1.16.3,1.02,1.02,0,0,0-.483.927.926.926,0,0,0,.127.479,1.518,1.518,0,0,0,.259.338,1.591,1.591,0,0,0,.475.259c.229.091.4.152.51.185s.322.087.633.163c.059.017.1.029.132.035q.51.132.831.233a5.053,5.053,0,0,1,.747.316,2.473,2.473,0,0,1,.672.47,2.18,2.18,0,0,1,.422.668,2.365,2.365,0,0,1,.176.932,2.516,2.516,0,0,1-.259,1.165,2.032,2.032,0,0,1-.708.8,3.422,3.422,0,0,1-1.006.435A4.83,4.83,0,0,1,134.526,143.167Zm8.332-.167a2.27,2.27,0,0,1-1.687-.62,2.344,2.344,0,0,1-.615-1.727v-5.08h-1.767V134.36h.65a1.251,1.251,0,0,0,.954-.3,1.488,1.488,0,0,0,.277-1.015v-1.567h1.415v2.882h1.986v1.213h-1.987V140.5a1.31,1.31,0,0,0,.33.954,1.155,1.155,0,0,0,.866.338h.791V143Zm6.943.167a4.559,4.559,0,0,1-2.215-.536,3.9,3.9,0,0,1-1.56-1.569,4.816,4.816,0,0,1-.576-2.386,4.4,4.4,0,0,1,1.226-3.256,4.6,4.6,0,0,1,6.253,0,4.955,4.955,0,0,1,0,6.521,4.23,4.23,0,0,1-3.125,1.226Zm-.009-1.267a2.656,2.656,0,0,0,2.043-.888,3.755,3.755,0,0,0,0-4.667,2.656,2.656,0,0,0-2.043-.888,2.617,2.617,0,0,0-2.026.888,3.8,3.8,0,0,0,0,4.667A2.617,2.617,0,0,0,149.792,141.9Zm18.976-3.393-.018.413H162a3.053,3.053,0,0,0,.826,2.21,2.715,2.715,0,0,0,1.969.769,2.59,2.59,0,0,0,1.433-.413,2.681,2.681,0,0,0,.984-1.143l1.371.29a3.9,3.9,0,0,1-1.477,1.854,4.022,4.022,0,0,1-2.294.677,4.171,4.171,0,0,1-3.111-1.2,5.123,5.123,0,0,1,0-6.564,4.123,4.123,0,0,1,3.063-1.2,3.9,3.9,0,0,1,2.9,1.107,4.377,4.377,0,0,1,1.1,3.2Zm-4-3.146a2.692,2.692,0,0,0-1.8.611,2.8,2.8,0,0,0-.91,1.78h5.177a2.568,2.568,0,0,0-.756-1.78,2.439,2.439,0,0,0-1.71-.61Zm9.114,7.8a4.1,4.1,0,0,1-2.329-.624,2.581,2.581,0,0,1-1.134-1.775l1.327-.378a1.854,1.854,0,0,0,.708,1.2,2.3,2.3,0,0,0,1.419.426,2.849,2.849,0,0,0,.831-.114,1.333,1.333,0,0,0,.637-.426,1.187,1.187,0,0,0,.185-1.143,1.52,1.52,0,0,0-.141-.286.881.881,0,0,0-.246-.237,3.312,3.312,0,0,0-.3-.185,3.043,3.043,0,0,0-.391-.163q-.26-.091-.417-.141t-.483-.141c-.217-.061-.383-.11-.5-.145a9.229,9.229,0,0,1-.9-.316,3.927,3.927,0,0,1-.729-.417,1.676,1.676,0,0,1-.567-.681,2.3,2.3,0,0,1-.189-.967,2.237,2.237,0,0,1,.422-1.38,2.373,2.373,0,0,1,1.094-.813,4.377,4.377,0,0,1,1.534-.25,3.748,3.748,0,0,1,2.1.563,2.4,2.4,0,0,1,1.05,1.688l-1.248.316a1.655,1.655,0,0,0-.659-1.094,2.1,2.1,0,0,0-1.239-.365,2.139,2.139,0,0,0-1.16.3,1.02,1.02,0,0,0-.483.927.926.926,0,0,0,.127.479,1.518,1.518,0,0,0,.259.338,1.591,1.591,0,0,0,.475.259c.229.091.4.152.51.185s.322.087.633.163c.059.017.1.029.132.035q.51.132.831.233a5.054,5.054,0,0,1,.747.316,2.473,2.473,0,0,1,.672.47,2.18,2.18,0,0,1,.422.668,2.365,2.365,0,0,1,.176.932,2.516,2.516,0,0,1-.259,1.165,2.032,2.032,0,0,1-.708.8,3.422,3.422,0,0,1-1.006.435,4.828,4.828,0,0,1-1.2.149ZM184.131,143V129.5h1.538V143Zm6.627.167a2.941,2.941,0,0,1-1.894-.593,2.129,2.129,0,0,1-.743-1.771,2.527,2.527,0,0,1,.237-1.129,1.99,1.99,0,0,1,.7-.787,4.239,4.239,0,0,1,1.015-.488,9.4,9.4,0,0,1,1.314-.312l1.4-.229q.765-.141.765-.8a1.51,1.51,0,0,0-.541-1.288,2.206,2.206,0,0,0-1.367-.409,2.238,2.238,0,0,0-1.354.4,1.655,1.655,0,0,0-.642,1.213l-1.371-.29a2.636,2.636,0,0,1,1.081-1.85,4.035,4.035,0,0,1,2.355-.62,4.809,4.809,0,0,1,1.252.154,3.4,3.4,0,0,1,1.046.483,2.177,2.177,0,0,1,.747.932,3.469,3.469,0,0,1,.268,1.419v3.568a1.463,1.463,0,0,0,.2.9.857.857,0,0,0,.681.233h.141V143h-.756a1.442,1.442,0,0,1-1.635-1.169h-.07A3.3,3.3,0,0,1,190.758,143.167Zm.352-1.23a2.3,2.3,0,0,0,1.854-.835,3.44,3.44,0,0,0,.7-2.285l-2.285.439a3.082,3.082,0,0,0-1.34.479,1.114,1.114,0,0,0-.435.945,1.1,1.1,0,0,0,.417.949A1.786,1.786,0,0,0,191.11,141.937Zm13.755,1.23a2.941,2.941,0,0,1-1.894-.593,2.129,2.129,0,0,1-.743-1.771,2.527,2.527,0,0,1,.237-1.129,1.99,1.99,0,0,1,.7-.787,4.239,4.239,0,0,1,1.015-.488,9.4,9.4,0,0,1,1.314-.312l1.4-.229q.765-.141.765-.8a1.51,1.51,0,0,0-.541-1.288,2.206,2.206,0,0,0-1.367-.409,2.24,2.24,0,0,0-1.354.4,1.655,1.655,0,0,0-.642,1.213l-1.371-.29a2.636,2.636,0,0,1,1.081-1.85,4.035,4.035,0,0,1,2.355-.62,4.809,4.809,0,0,1,1.252.154,3.4,3.4,0,0,1,1.046.483,2.177,2.177,0,0,1,.747.932,3.469,3.469,0,0,1,.268,1.419v3.568a1.463,1.463,0,0,0,.2.9.857.857,0,0,0,.681.233h.141V143H209.4a1.442,1.442,0,0,1-1.635-1.169h-.07A3.3,3.3,0,0,1,204.865,143.167Zm.352-1.23a2.3,2.3,0,0,0,1.854-.835,3.44,3.44,0,0,0,.7-2.285l-2.285.439a3.082,3.082,0,0,0-1.34.479,1.114,1.114,0,0,0-.435.945,1.1,1.1,0,0,0,.417.949,1.785,1.785,0,0,0,1.088.308Zm10.494,1.222a4.162,4.162,0,0,1-3.094-1.239,4.922,4.922,0,0,1-.005-6.486,4.5,4.5,0,0,1,5.6-.483,3.815,3.815,0,0,1,1.455,2.1l-1.424.229a2.588,2.588,0,0,0-2.54-1.82,2.555,2.555,0,0,0-2,.888,3.837,3.837,0,0,0,0,4.652,2.56,2.56,0,0,0,2,.883,2.588,2.588,0,0,0,2.54-1.82l1.424.237a3.821,3.821,0,0,1-1.463,2.1,4.184,4.184,0,0,1-2.491.758Zm9.782,0a4.162,4.162,0,0,1-3.094-1.239,4.922,4.922,0,0,1-.005-6.486,4.5,4.5,0,0,1,5.6-.483,3.815,3.815,0,0,1,1.455,2.1l-1.424.229a2.588,2.588,0,0,0-2.54-1.82,2.555,2.555,0,0,0-2,.888,3.833,3.833,0,0,0,0,4.652,2.56,2.56,0,0,0,2,.883,2.588,2.588,0,0,0,2.54-1.82l1.424.237a3.821,3.821,0,0,1-1.463,2.1,4.187,4.187,0,0,1-2.492.758Zm6.97-10.828a1.034,1.034,0,0,1-1.029-1.031.974.974,0,0,1,.3-.721,1,1,0,0,1,.725-.3.985.985,0,0,1,.716.3.974.974,0,0,1,.3.721,1.033,1.033,0,0,1-1.013,1.03ZM231.689,143v-8.64h1.529V143Zm7.682-10.125,2.206-2.865.809.589-1.969,2.276Zm.58,10.292a4.559,4.559,0,0,1-2.215-.536,3.9,3.9,0,0,1-1.56-1.569,4.816,4.816,0,0,1-.576-2.386,4.4,4.4,0,0,1,1.226-3.256,4.6,4.6,0,0,1,6.253,0,4.955,4.955,0,0,1,0,6.521A4.232,4.232,0,0,1,239.951,143.167Zm-.009-1.266a2.656,2.656,0,0,0,2.043-.888,3.755,3.755,0,0,0,0-4.667,2.656,2.656,0,0,0-2.043-.888,2.617,2.617,0,0,0-2.026.888,3.8,3.8,0,0,0,0,4.667,2.616,2.616,0,0,0,2.026.887Zm10.819-7.708a3.006,3.006,0,0,1,2.175.782,2.921,2.921,0,0,1,.813,2.206V143h-1.521v-5.476a2.044,2.044,0,0,0-.527-1.547,1.881,1.881,0,0,0-1.354-.5,2.092,2.092,0,0,0-1.538.593,2.407,2.407,0,0,0-.606,1.762V143h-1.521v-8.64H248.2v1.108A2.885,2.885,0,0,1,250.761,134.193Zm7.26,8.982a.985.985,0,0,1-.716-.3,1.022,1.022,0,0,1,.716-1.74,1.019,1.019,0,0,1,.744,1.714l-.023.023a1,1,0,0,1-.721.3Zm21.41.448-1.415.483-1.74-1.863a6.4,6.4,0,0,1-3.419.923,6.644,6.644,0,0,1-2.443-.444,5.868,5.868,0,0,1-1.964-1.248,5.632,5.632,0,0,1-1.305-2.008,7.666,7.666,0,0,1,0-5.313,5.636,5.636,0,0,1,1.305-2,5.856,5.856,0,0,1,1.964-1.253,6.921,6.921,0,0,1,4.878,0,5.852,5.852,0,0,1,1.964,1.248,5.677,5.677,0,0,1,1.31,2,7.083,7.083,0,0,1,.479,2.65,6.282,6.282,0,0,1-1.705,4.579Zm-11.2-6.82a5.874,5.874,0,0,0,.36,2.1,4.232,4.232,0,0,0,.989,1.556,4.376,4.376,0,0,0,1.468.94,5.1,5.1,0,0,0,3.608,0,4.4,4.4,0,0,0,1.463-.94,4.2,4.2,0,0,0,.984-1.556,5.942,5.942,0,0,0,.356-2.1,5.281,5.281,0,0,0-.62-2.615,4.124,4.124,0,0,0-1.652-1.67,5.167,5.167,0,0,0-4.671,0,4.134,4.134,0,0,0-1.661,1.67,5.246,5.246,0,0,0-.621,2.612Zm18.94-2.443h1.521V143h-1.459l-.035-1.143a2.7,2.7,0,0,1-1.072.971,3.3,3.3,0,0,1-1.512.338,3.006,3.006,0,0,1-2.175-.782,2.921,2.921,0,0,1-.813-2.206V134.36h1.521v5.476a2.052,2.052,0,0,0,.532,1.547,1.881,1.881,0,0,0,1.358.51,2.068,2.068,0,0,0,1.534-.6,2.433,2.433,0,0,0,.6-1.767Zm10.661-3.8-1.965,2.28h-1.046l2.206-2.865Zm1.512,7.945-.018.413h-6.75a3.053,3.053,0,0,0,.826,2.21,2.715,2.715,0,0,0,1.969.769,2.59,2.59,0,0,0,1.433-.413,2.681,2.681,0,0,0,.984-1.143l1.371.29a3.9,3.9,0,0,1-1.477,1.854,4.025,4.025,0,0,1-2.294.677,4.171,4.171,0,0,1-3.111-1.2,5.115,5.115,0,0,1,.008-6.562,4.123,4.123,0,0,1,3.063-1.2,3.9,3.9,0,0,1,2.9,1.107,4.376,4.376,0,0,1,1.1,3.2Zm-4-3.146a2.692,2.692,0,0,0-1.8.611,2.8,2.8,0,0,0-.91,1.78h5.177a2.568,2.568,0,0,0-.756-1.78,2.441,2.441,0,0,0-1.707-.608Zm18.615,3.146-.018.413H307.2a3.053,3.053,0,0,0,.826,2.21,2.715,2.715,0,0,0,1.969.769,2.59,2.59,0,0,0,1.433-.413,2.681,2.681,0,0,0,.984-1.143l1.371.29a3.9,3.9,0,0,1-1.483,1.859,4.025,4.025,0,0,1-2.294.677,4.171,4.171,0,0,1-3.111-1.2,5.127,5.127,0,0,1,.005-6.567,4.123,4.123,0,0,1,3.063-1.2,3.9,3.9,0,0,1,2.9,1.107,4.376,4.376,0,0,1,1.1,3.2Zm-4-3.146a2.692,2.692,0,0,0-1.8.611,2.8,2.8,0,0,0-.91,1.78h5.177a2.568,2.568,0,0,0-.756-1.78,2.439,2.439,0,0,0-1.706-.608Zm9.114,7.8a4.1,4.1,0,0,1-2.329-.624,2.582,2.582,0,0,1-1.134-1.775l1.327-.378a1.854,1.854,0,0,0,.708,1.2,2.3,2.3,0,0,0,1.419.426,2.849,2.849,0,0,0,.831-.114,1.328,1.328,0,0,0,.637-.426,1.187,1.187,0,0,0,.185-1.143,1.521,1.521,0,0,0-.141-.286.881.881,0,0,0-.246-.237,3.31,3.31,0,0,0-.3-.185,3.041,3.041,0,0,0-.391-.163q-.26-.091-.417-.141t-.483-.141c-.217-.061-.383-.11-.5-.145a9.224,9.224,0,0,1-.9-.316,3.929,3.929,0,0,1-.729-.417,1.676,1.676,0,0,1-.567-.681,2.3,2.3,0,0,1-.189-.967,2.237,2.237,0,0,1,.422-1.38,2.373,2.373,0,0,1,1.094-.813,4.377,4.377,0,0,1,1.534-.25,3.748,3.748,0,0,1,2.1.563,2.4,2.4,0,0,1,1.05,1.688l-1.248.316a1.655,1.655,0,0,0-.659-1.094,2.1,2.1,0,0,0-1.239-.365,2.14,2.14,0,0,0-1.16.3,1.02,1.02,0,0,0-.483.927.926.926,0,0,0,.127.479,1.519,1.519,0,0,0,.259.338,1.591,1.591,0,0,0,.475.259c.229.091.4.152.51.185s.322.087.633.163c.059.017.1.029.132.035q.51.132.831.233a5.053,5.053,0,0,1,.747.316,2.458,2.458,0,0,1,.672.47,2.18,2.18,0,0,1,.422.668,2.365,2.365,0,0,1,.176.932,2.517,2.517,0,0,1-.249,1.176,2.032,2.032,0,0,1-.708.8,3.422,3.422,0,0,1-1.006.435,4.766,4.766,0,0,1-1.207.14Zm8.338-.159a2.27,2.27,0,0,1-1.687-.62,2.344,2.344,0,0,1-.615-1.727v-5.08h-1.767V134.36h.65a1.251,1.251,0,0,0,.954-.3,1.488,1.488,0,0,0,.277-1.015v-1.567h1.415v2.882h1.986v1.213h-1.986V140.5a1.31,1.31,0,0,0,.33.954,1.155,1.155,0,0,0,.866.338h.791V143Zm5.924-10.134L335.541,130l.809.589-1.97,2.277Zm-.624,10.3a2.941,2.941,0,0,1-1.894-.593,2.129,2.129,0,0,1-.743-1.771,2.527,2.527,0,0,1,.237-1.129,1.99,1.99,0,0,1,.7-.787,4.239,4.239,0,0,1,1.015-.488,9.4,9.4,0,0,1,1.314-.312l1.4-.229q.765-.141.765-.8a1.51,1.51,0,0,0-.541-1.288,2.2,2.2,0,0,0-1.367-.409,2.24,2.24,0,0,0-1.354.4,1.655,1.655,0,0,0-.642,1.213l-1.371-.29a2.639,2.639,0,0,1,1.081-1.85,4.037,4.037,0,0,1,2.355-.62,4.809,4.809,0,0,1,1.252.154,3.4,3.4,0,0,1,1.046.483,2.177,2.177,0,0,1,.747.932,3.47,3.47,0,0,1,.268,1.419v3.568a1.463,1.463,0,0,0,.2.9.857.857,0,0,0,.681.233H338V143h-.756a1.442,1.442,0,0,1-1.635-1.169h-.07a3.3,3.3,0,0,1-2.829,1.336Zm.352-1.23a2.3,2.3,0,0,0,1.854-.835,3.44,3.44,0,0,0,.7-2.285l-2.285.439a3.081,3.081,0,0,0-1.34.479,1.114,1.114,0,0,0-.435.945,1.1,1.1,0,0,0,.417.949,1.784,1.784,0,0,0,1.088.309Zm16.321-7.743a3.929,3.929,0,0,1,1.564.316,3.839,3.839,0,0,1,1.283.888,4.144,4.144,0,0,1,.866,1.424,5.237,5.237,0,0,1,.321,1.863,4.568,4.568,0,0,1-1.165,3.261,3.78,3.78,0,0,1-2.87,1.239,3.421,3.421,0,0,1-1.806-.492,3.224,3.224,0,0,1-1.235-1.327v5.985h-1.521V134.36h1.468l.035,1.679a3.163,3.163,0,0,1,1.23-1.349,3.454,3.454,0,0,1,1.829-.5Zm-.3,7.673a2.624,2.624,0,0,0,2-.875,3.67,3.67,0,0,0,0-4.607,2.726,2.726,0,0,0-3.853-.141c-.061.058-.121.118-.177.181a3.525,3.525,0,0,0,0,4.535,2.636,2.636,0,0,0,2.03.907Zm8.728,1.3a2.941,2.941,0,0,1-1.894-.593,2.129,2.129,0,0,1-.743-1.771,2.527,2.527,0,0,1,.237-1.129,1.99,1.99,0,0,1,.7-.787,4.239,4.239,0,0,1,1.015-.488,9.4,9.4,0,0,1,1.314-.312l1.4-.229q.765-.141.765-.8a1.51,1.51,0,0,0-.541-1.288,2.2,2.2,0,0,0-1.367-.409,2.24,2.24,0,0,0-1.354.4,1.655,1.655,0,0,0-.642,1.213l-1.371-.29a2.639,2.639,0,0,1,1.081-1.85,4.037,4.037,0,0,1,2.355-.62,4.81,4.81,0,0,1,1.252.154,3.4,3.4,0,0,1,1.046.483,2.177,2.177,0,0,1,.747.932,3.469,3.469,0,0,1,.268,1.419v3.568a1.463,1.463,0,0,0,.2.9.857.857,0,0,0,.681.233h.141V143h-.756a1.442,1.442,0,0,1-1.635-1.169h-.07a3.3,3.3,0,0,1-2.829,1.336Zm.352-1.23a2.3,2.3,0,0,0,1.854-.835,3.44,3.44,0,0,0,.7-2.285l-2.285.439a3.082,3.082,0,0,0-1.34.479,1.114,1.114,0,0,0-.435.945,1.1,1.1,0,0,0,.417.949,1.787,1.787,0,0,0,1.089.309Zm9.817,1.23a4.1,4.1,0,0,1-2.329-.624,2.582,2.582,0,0,1-1.134-1.775l1.327-.378a1.854,1.854,0,0,0,.708,1.2,2.3,2.3,0,0,0,1.419.426,2.85,2.85,0,0,0,.831-.114,1.328,1.328,0,0,0,.637-.426,1.187,1.187,0,0,0,.185-1.143,1.52,1.52,0,0,0-.141-.286.882.882,0,0,0-.246-.237,3.314,3.314,0,0,0-.3-.185,3.041,3.041,0,0,0-.391-.163q-.26-.092-.417-.141t-.483-.141c-.217-.061-.383-.11-.5-.145a9.223,9.223,0,0,1-.9-.316,3.927,3.927,0,0,1-.729-.417,1.676,1.676,0,0,1-.567-.681,2.3,2.3,0,0,1-.189-.967,2.237,2.237,0,0,1,.422-1.38,2.373,2.373,0,0,1,1.094-.813,4.376,4.376,0,0,1,1.534-.25,3.748,3.748,0,0,1,2.1.563,2.4,2.4,0,0,1,1.05,1.688l-1.248.316a1.655,1.655,0,0,0-.659-1.094,2.1,2.1,0,0,0-1.239-.365,2.14,2.14,0,0,0-1.16.3,1.02,1.02,0,0,0-.483.927.926.926,0,0,0,.127.479,1.519,1.519,0,0,0,.259.338,1.591,1.591,0,0,0,.475.259c.229.091.4.152.51.185s.322.087.633.163c.059.017.1.029.132.035q.51.132.831.233a5.054,5.054,0,0,1,.747.316,2.458,2.458,0,0,1,.672.47,2.18,2.18,0,0,1,.422.668,2.366,2.366,0,0,1,.176.932,2.516,2.516,0,0,1-.259,1.165,2.032,2.032,0,0,1-.708.8,3.422,3.422,0,0,1-1.006.435,4.784,4.784,0,0,1-1.2.144Zm7.567,0a2.941,2.941,0,0,1-1.894-.593,2.129,2.129,0,0,1-.743-1.771,2.527,2.527,0,0,1,.237-1.129,1.99,1.99,0,0,1,.7-.787,4.239,4.239,0,0,1,1.015-.488,9.4,9.4,0,0,1,1.314-.312l1.4-.229q.765-.141.765-.8a1.51,1.51,0,0,0-.541-1.288,2.206,2.206,0,0,0-1.367-.409,2.24,2.24,0,0,0-1.354.4,1.655,1.655,0,0,0-.642,1.213l-1.371-.29a2.639,2.639,0,0,1,1.081-1.85,4.037,4.037,0,0,1,2.355-.62,4.809,4.809,0,0,1,1.252.154,3.4,3.4,0,0,1,1.046.483,2.177,2.177,0,0,1,.747.932,3.47,3.47,0,0,1,.268,1.419v3.568a1.463,1.463,0,0,0,.2.9.857.857,0,0,0,.681.233h.141V143h-.756a1.442,1.442,0,0,1-1.635-1.169h-.07a3.3,3.3,0,0,1-2.829,1.336Zm.352-1.23a2.3,2.3,0,0,0,1.854-.835,3.44,3.44,0,0,0,.7-2.285l-2.285.439a3.081,3.081,0,0,0-1.34.479,1.114,1.114,0,0,0-.435.945,1.1,1.1,0,0,0,.417.949,1.787,1.787,0,0,0,1.089.309Zm11.162-7.743a3.006,3.006,0,0,1,2.175.782,2.92,2.92,0,0,1,.813,2.206V143h-1.52v-5.476a2.043,2.043,0,0,0-.53-1.546,1.881,1.881,0,0,0-1.354-.5,2.092,2.092,0,0,0-1.538.593,2.407,2.407,0,0,0-.606,1.762V143h-1.521v-8.64H384.5v1.108a2.887,2.887,0,0,1,2.562-1.275Zm12.3-4.693h1.521V143h-1.468l-.035-1.679a3.177,3.177,0,0,1-1.23,1.362,3.433,3.433,0,0,1-1.828.5,3.925,3.925,0,0,1-2.852-1.217,4.147,4.147,0,0,1-.87-1.428,5.233,5.233,0,0,1-.321-1.854,4.546,4.546,0,0,1,1.173-3.243,3.789,3.789,0,0,1,2.87-1.248,3.447,3.447,0,0,1,1.806.488A3.2,3.2,0,0,1,399.367,136Zm-2.725,12.366a2.586,2.586,0,0,0,2.008-.91,3.569,3.569,0,0,0,0-4.54,2.588,2.588,0,0,0-2-.914,2.644,2.644,0,0,0-2.021.883,3.646,3.646,0,0,0,0,4.6,2.644,2.644,0,0,0,2.022.881Zm10.978,1.3a4.559,4.559,0,0,1-2.215-.536,3.9,3.9,0,0,1-1.56-1.569,4.817,4.817,0,0,1-.576-2.386,4.4,4.4,0,0,1,1.236-3.256,4.6,4.6,0,0,1,6.253,0,4.955,4.955,0,0,1,0,6.521,4.235,4.235,0,0,1-3.129,1.227Zm-.009-1.266a2.655,2.655,0,0,0,2.043-.888,3.755,3.755,0,0,0,0-4.667,2.656,2.656,0,0,0-2.043-.888,2.617,2.617,0,0,0-2.026.888,3.8,3.8,0,0,0,0,4.667,2.62,2.62,0,0,0,2.031.888Zm7.7,1.274a.985.985,0,0,1-.716-.3,1.022,1.022,0,0,1,.716-1.74,1.019,1.019,0,0,1,.744,1.714l-.023.023a1,1,0,0,1-.717.3Zm21.41.448-1.415.483-1.74-1.863a6.4,6.4,0,0,1-3.419.923,6.644,6.644,0,0,1-2.443-.444,5.868,5.868,0,0,1-1.964-1.248,5.632,5.632,0,0,1-1.3-2.008,7.666,7.666,0,0,1,0-5.313,5.636,5.636,0,0,1,1.3-2A5.867,5.867,0,0,1,427.7,130.9a6.921,6.921,0,0,1,4.878,0,5.852,5.852,0,0,1,1.964,1.248,5.676,5.676,0,0,1,1.31,2,7.082,7.082,0,0,1,.479,2.65,6.282,6.282,0,0,1-1.7,4.579Zm-11.2-6.82a5.874,5.874,0,0,0,.36,2.1,4.231,4.231,0,0,0,.989,1.556,4.375,4.375,0,0,0,1.468.94,5.1,5.1,0,0,0,3.608,0,4.4,4.4,0,0,0,1.463-.94,4.2,4.2,0,0,0,.984-1.556,5.941,5.941,0,0,0,.356-2.1,5.292,5.292,0,0,0-.62-2.615,4.124,4.124,0,0,0-1.652-1.67,5.167,5.167,0,0,0-4.671,0,4.134,4.134,0,0,0-1.661,1.67,5.26,5.26,0,0,0-.617,2.613Zm18.94-2.443h1.521V143h-1.459l-.035-1.143a2.7,2.7,0,0,1-1.072.971,3.3,3.3,0,0,1-1.512.338,3.006,3.006,0,0,1-2.175-.782,2.921,2.921,0,0,1-.813-2.206V134.36h1.521v5.476a2.052,2.052,0,0,0,.532,1.547,1.881,1.881,0,0,0,1.358.51,2.068,2.068,0,0,0,1.534-.6,2.432,2.432,0,0,0,.6-1.767Zm5.388-2.03a1.035,1.035,0,0,1-1.021-1.029.974.974,0,0,1,.3-.721,1,1,0,0,1,.725-.3.985.985,0,0,1,.716.3.974.974,0,0,1,.3.721,1.033,1.033,0,0,1-1.013,1.03ZM449.078,143v-8.64h1.529V143Zm10.67-12.437-1.969,2.277h-1.046l2.206-2.865Zm1.512,7.945-.018.413h-6.75a3.053,3.053,0,0,0,.826,2.21,2.715,2.715,0,0,0,1.969.769,2.59,2.59,0,0,0,1.433-.413,2.681,2.681,0,0,0,.984-1.143l1.371.29a3.9,3.9,0,0,1-1.475,1.856,4.023,4.023,0,0,1-2.294.677,4.171,4.171,0,0,1-3.111-1.2,5.127,5.127,0,0,1,.005-6.567,4.123,4.123,0,0,1,3.063-1.2,3.9,3.9,0,0,1,2.9,1.107,4.375,4.375,0,0,1,1.1,3.2Zm-4-3.146a2.692,2.692,0,0,0-1.8.611,2.8,2.8,0,0,0-.91,1.78h5.177a2.567,2.567,0,0,0-.756-1.78A2.441,2.441,0,0,0,457.26,135.362Zm10.459-1.169a3.006,3.006,0,0,1,2.175.782,2.921,2.921,0,0,1,.813,2.206V143h-1.521v-5.476a2.044,2.044,0,0,0-.527-1.547,1.881,1.881,0,0,0-1.354-.5,2.092,2.092,0,0,0-1.538.593,2.407,2.407,0,0,0-.606,1.762V143H463.64v-8.64h1.521v1.108A2.885,2.885,0,0,1,467.719,134.193Zm14.73,0a2.884,2.884,0,0,1,2.136.8,3.1,3.1,0,0,1,.8,2.294V143h-1.521v-5.423a2.125,2.125,0,0,0-.527-1.591,1.877,1.877,0,0,0-1.362-.51,2.09,2.09,0,0,0-1.525.589,2.4,2.4,0,0,0-.611,1.767V143h-1.521V129.5h1.521v6a2.817,2.817,0,0,1,1.085-.967,3.3,3.3,0,0,1,1.526-.34Zm7.857,8.974a2.941,2.941,0,0,1-1.894-.593,2.129,2.129,0,0,1-.743-1.771,2.527,2.527,0,0,1,.237-1.129,1.99,1.99,0,0,1,.7-.787,4.239,4.239,0,0,1,1.015-.488,9.4,9.4,0,0,1,1.314-.312l1.4-.229q.765-.141.765-.8a1.51,1.51,0,0,0-.541-1.288,2.206,2.206,0,0,0-1.367-.409,2.24,2.24,0,0,0-1.354.4,1.655,1.655,0,0,0-.642,1.213l-1.371-.29a2.639,2.639,0,0,1,1.081-1.85,4.037,4.037,0,0,1,2.355-.62,4.809,4.809,0,0,1,1.252.154,3.4,3.4,0,0,1,1.046.483,2.177,2.177,0,0,1,.747.932,3.469,3.469,0,0,1,.268,1.419v3.568a1.463,1.463,0,0,0,.2.9.857.857,0,0,0,.681.233h.141V143h-.756a1.442,1.442,0,0,1-1.635-1.169h-.07a3.3,3.3,0,0,1-2.828,1.336Zm.352-1.23a2.3,2.3,0,0,0,1.854-.835,3.44,3.44,0,0,0,.7-2.285l-2.285.439a3.082,3.082,0,0,0-1.34.479,1.114,1.114,0,0,0-.435.945,1.1,1.1,0,0,0,.417.949,1.789,1.789,0,0,0,1.09.308Zm10.494,1.222a4.162,4.162,0,0,1-3.094-1.239,4.922,4.922,0,0,1-.005-6.486,4.5,4.5,0,0,1,5.6-.483,3.815,3.815,0,0,1,1.455,2.1l-1.424.229a2.588,2.588,0,0,0-2.54-1.82,2.555,2.555,0,0,0-2,.888,3.829,3.829,0,0,0,0,4.652,2.56,2.56,0,0,0,2,.883,2.588,2.588,0,0,0,2.54-1.82l1.424.237a3.821,3.821,0,0,1-1.463,2.1,4.183,4.183,0,0,1-2.493.758Zm13.755-4.649-.018.413h-6.75a3.053,3.053,0,0,0,.826,2.21,2.715,2.715,0,0,0,1.969.769,2.59,2.59,0,0,0,1.433-.413,2.682,2.682,0,0,0,.984-1.143l1.371.29a3.9,3.9,0,0,1-1.477,1.854,4.025,4.025,0,0,1-2.294.677,4.171,4.171,0,0,1-3.111-1.2,5.125,5.125,0,0,1,.006-6.567,4.123,4.123,0,0,1,3.063-1.2,3.9,3.9,0,0,1,2.9,1.107,4.376,4.376,0,0,1,1.1,3.2Zm-4-3.146a2.692,2.692,0,0,0-1.8.611,2.8,2.8,0,0,0-.91,1.78h5.177a2.568,2.568,0,0,0-.756-1.78,2.444,2.444,0,0,0-1.709-.613Zm17.473-1h1.468v12.99h-1.521v-5.962A3.158,3.158,0,0,1,527.1,142.7a3.438,3.438,0,0,1-1.793.488,3.791,3.791,0,0,1-2.878-1.239,4.567,4.567,0,0,1-1.165-3.261,5.238,5.238,0,0,1,.321-1.863,4.121,4.121,0,0,1,.87-1.424,3.938,3.938,0,0,1,2.852-1.2,3.435,3.435,0,0,1,1.811.492,3.157,3.157,0,0,1,1.23,1.327Zm-2.78,7.5a2.621,2.621,0,0,0,2.03-.91,3.547,3.547,0,0,0-.005-4.535,2.721,2.721,0,0,0-3.842-.22q-.1.085-.183.18a3.687,3.687,0,0,0,0,4.619A2.631,2.631,0,0,0,525.6,141.866Zm12.731-7.506h1.521V143h-1.459l-.035-1.143a2.7,2.7,0,0,1-1.072.971,3.3,3.3,0,0,1-1.512.338,3.006,3.006,0,0,1-2.175-.782,2.921,2.921,0,0,1-.813-2.206V134.36h1.521v5.476a2.052,2.052,0,0,0,.532,1.547,1.881,1.881,0,0,0,1.358.51,2.068,2.068,0,0,0,1.534-.6,2.432,2.432,0,0,0,.6-1.767Zm10.661-3.8-1.969,2.28h-1.046l2.206-2.865Zm1.512,7.945-.018.413h-6.75a3.053,3.053,0,0,0,.826,2.21,2.714,2.714,0,0,0,1.969.769,2.59,2.59,0,0,0,1.433-.413,2.681,2.681,0,0,0,.984-1.143l1.371.29a3.9,3.9,0,0,1-1.477,1.854,4.022,4.022,0,0,1-2.294.677,4.171,4.171,0,0,1-3.111-1.2,5.121,5.121,0,0,1,0-6.562,4.123,4.123,0,0,1,3.063-1.2,3.9,3.9,0,0,1,2.9,1.107,4.375,4.375,0,0,1,1.1,3.2Zm-4-3.146a2.692,2.692,0,0,0-1.8.611,2.8,2.8,0,0,0-.91,1.78h5.177a2.568,2.568,0,0,0-.756-1.78,2.441,2.441,0,0,0-1.715-.608Zm7.339,7.813a.985.985,0,0,1-.716-.3,1.022,1.022,0,0,1,.716-1.74,1.019,1.019,0,0,1,.744,1.714l-.023.023a1,1,0,0,1-.721.307Zm21.41.448-1.415.483-1.74-1.863a6.4,6.4,0,0,1-3.419.923,6.644,6.644,0,0,1-2.443-.444,5.877,5.877,0,0,1-1.964-1.248,5.632,5.632,0,0,1-1.3-2.008,7.666,7.666,0,0,1,0-5.313,5.637,5.637,0,0,1,1.3-2,5.848,5.848,0,0,1,1.964-1.25,6.921,6.921,0,0,1,4.878,0,5.852,5.852,0,0,1,1.964,1.248,5.676,5.676,0,0,1,1.31,2,7.083,7.083,0,0,1,.479,2.65,6.281,6.281,0,0,1-1.705,4.579Zm-11.2-6.82a5.875,5.875,0,0,0,.36,2.1,4.231,4.231,0,0,0,.989,1.556,4.375,4.375,0,0,0,1.468.94,5.1,5.1,0,0,0,3.608,0,4.395,4.395,0,0,0,1.463-.94,4.2,4.2,0,0,0,.984-1.556,5.941,5.941,0,0,0,.356-2.1,5.281,5.281,0,0,0-.62-2.615,4.124,4.124,0,0,0-1.652-1.67,5.166,5.166,0,0,0-4.671,0,4.134,4.134,0,0,0-1.661,1.67,5.258,5.258,0,0,0-.621,2.615ZM583,134.36h1.521V143h-1.459l-.035-1.143a2.7,2.7,0,0,1-1.072.971,3.3,3.3,0,0,1-1.512.338,3.006,3.006,0,0,1-2.175-.782,2.921,2.921,0,0,1-.813-2.206V134.36h1.521v5.476a2.052,2.052,0,0,0,.532,1.547,1.881,1.881,0,0,0,1.358.51,2.068,2.068,0,0,0,1.534-.6,2.432,2.432,0,0,0,.6-1.767Zm10.661-3.8-1.972,2.28h-1.046l2.206-2.865Zm1.512,7.945-.018.413H588.4a3.053,3.053,0,0,0,.826,2.21,2.714,2.714,0,0,0,1.969.769,2.59,2.59,0,0,0,1.433-.413,2.681,2.681,0,0,0,.984-1.143l1.371.29a3.9,3.9,0,0,1-1.477,1.854,4.022,4.022,0,0,1-2.294.677,4.171,4.171,0,0,1-3.111-1.2,5.118,5.118,0,0,1,.006-6.562,4.123,4.123,0,0,1,3.063-1.2,3.9,3.9,0,0,1,2.9,1.107,4.376,4.376,0,0,1,1.1,3.2Zm-4-3.146a2.692,2.692,0,0,0-1.8.611,2.8,2.8,0,0,0-.91,1.78h5.177a2.563,2.563,0,0,0-.756-1.78,2.44,2.44,0,0,0-1.714-.608Zm13.79,7.8a4.1,4.1,0,0,1-2.329-.624,2.581,2.581,0,0,1-1.134-1.775l1.327-.378a1.854,1.854,0,0,0,.708,1.2,2.3,2.3,0,0,0,1.419.426,2.849,2.849,0,0,0,.831-.114,1.328,1.328,0,0,0,.637-.426,1.187,1.187,0,0,0,.185-1.143,1.519,1.519,0,0,0-.141-.286.868.868,0,0,0-.246-.237,3.168,3.168,0,0,0-.3-.185,3.037,3.037,0,0,0-.391-.163q-.258-.091-.417-.141t-.483-.141c-.216-.061-.383-.11-.5-.145a9.312,9.312,0,0,1-.9-.316,3.96,3.96,0,0,1-.729-.417,1.684,1.684,0,0,1-.567-.681,2.312,2.312,0,0,1-.189-.967,2.237,2.237,0,0,1,.422-1.38,2.372,2.372,0,0,1,1.094-.813,4.377,4.377,0,0,1,1.534-.25,3.748,3.748,0,0,1,2.1.563,2.4,2.4,0,0,1,1.05,1.688l-1.248.316a1.655,1.655,0,0,0-.659-1.094,2.1,2.1,0,0,0-1.239-.365,2.139,2.139,0,0,0-1.16.3,1.02,1.02,0,0,0-.483.927.927.927,0,0,0,.127.479,1.519,1.519,0,0,0,.259.338,1.6,1.6,0,0,0,.475.259c.229.091.4.152.51.185s.322.087.633.163c.059.017.1.029.132.035q.51.132.831.233a5.053,5.053,0,0,1,.747.316,2.459,2.459,0,0,1,.672.47,2.18,2.18,0,0,1,.422.668,2.366,2.366,0,0,1,.176.932,2.5,2.5,0,0,1-.259,1.165,2.032,2.032,0,0,1-.708.8,3.422,3.422,0,0,1-1.006.435,4.809,4.809,0,0,1-1.206.151Zm13.131-4.658-.018.413h-6.75a3.053,3.053,0,0,0,.826,2.21,2.715,2.715,0,0,0,1.969.769,2.59,2.59,0,0,0,1.433-.413,2.682,2.682,0,0,0,.984-1.143l1.371.29a3.9,3.9,0,0,1-1.477,1.854,4.027,4.027,0,0,1-2.294.677,4.171,4.171,0,0,1-3.111-1.2,5.119,5.119,0,0,1,0-6.558,4.123,4.123,0,0,1,3.063-1.2A3.9,3.9,0,0,1,617,135.3a4.377,4.377,0,0,1,1.091,3.209Zm-4-3.146a2.692,2.692,0,0,0-1.8.611,2.8,2.8,0,0,0-.91,1.78h5.177a2.567,2.567,0,0,0-.756-1.78,2.44,2.44,0,0,0-1.713-.6Zm14.7,7.8a4.559,4.559,0,0,1-2.215-.536,3.9,3.9,0,0,1-1.56-1.569,4.817,4.817,0,0,1-.576-2.386,4.4,4.4,0,0,1,1.226-3.256,4.6,4.6,0,0,1,6.253,0,4.955,4.955,0,0,1,0,6.521,4.229,4.229,0,0,1-3.13,1.238Zm-.009-1.266a2.656,2.656,0,0,0,2.043-.888,3.755,3.755,0,0,0,0-4.667,2.656,2.656,0,0,0-2.043-.888,2.618,2.618,0,0,0-2.026.888,3.8,3.8,0,0,0,0,4.667,2.619,2.619,0,0,0,2.02.9ZM640.5,134.36h1.608l-5,12.709h-1.573l1.731-4.28-3.354-8.429H635.6l2.435,6.724Zm10.652,4.148-.018.413h-6.75a3.053,3.053,0,0,0,.826,2.21,2.714,2.714,0,0,0,1.969.769,2.59,2.59,0,0,0,1.433-.413,2.681,2.681,0,0,0,.984-1.143l1.371.29a3.9,3.9,0,0,1-1.477,1.854,4.027,4.027,0,0,1-2.294.677,4.171,4.171,0,0,1-3.111-1.2,5.117,5.117,0,0,1,.009-6.565,4.123,4.123,0,0,1,3.063-1.2,3.9,3.9,0,0,1,2.9,1.107,4.376,4.376,0,0,1,1.1,3.2Zm-4-3.146a2.692,2.692,0,0,0-1.8.611,2.8,2.8,0,0,0-.91,1.78h5.177a2.568,2.568,0,0,0-.756-1.78,2.44,2.44,0,0,0-1.706-.611Zm7.339,7.813a.985.985,0,0,1-.716-.3,1.022,1.022,0,0,1,.716-1.74,1.019,1.019,0,0,1,.744,1.714l-.023.023a1,1,0,0,1-.712.3Z" transform="translate(418 5805)" fill="#00223d"/>
      <path id="Trazado_27796" data-name="Trazado 27796" d="M337.457,191.625a3.669,3.669,0,0,1,1.938.514,3.474,3.474,0,0,1,1.3,1.375,4.042,4.042,0,0,1,.453,1.907,3.754,3.754,0,0,1-1.024,2.694,3.514,3.514,0,0,1-2.667,1.077h-3.111V204h-1.573V191.625Zm-.229,6.2a2.25,2.25,0,0,0,1.723-.664,2.763,2.763,0,0,0,0-3.5,2.237,2.237,0,0,0-1.723-.672h-2.883v4.834Zm13.315-4.764h-5.027v4.052h4.43v1.415h-4.43v4.043h5.027V204h-6.636V191.625h6.636ZM360.255,204l-3.182-5.581h-1.942V204h-1.573V191.625h4.1a3.7,3.7,0,0,1,2.773.98,3.459,3.459,0,0,1,.954,2.518,3.1,3.1,0,0,1-2.742,3.234L362.092,204Zm-5.124-11v4.18h2.32a2.594,2.594,0,0,0,1.811-.558,1.96,1.96,0,0,0,.606-1.516,2,2,0,0,0-.611-1.529,2.554,2.554,0,0,0-1.8-.577Zm13.386,11.162a5.654,5.654,0,0,1-3.23-.875,3.7,3.7,0,0,1-1.613-2.4l1.591-.378a2.61,2.61,0,0,0,1.116,1.688,3.772,3.772,0,0,0,2.188.615,4.568,4.568,0,0,0,.817-.07,3.129,3.129,0,0,0,.743-.233,2.3,2.3,0,0,0,.611-.4,1.666,1.666,0,0,0,.4-.606,2.065,2.065,0,0,0,.141-.826,1.793,1.793,0,0,0-.11-.584,1.856,1.856,0,0,0-.246-.461,1.671,1.671,0,0,0-.417-.374,5.381,5.381,0,0,0-.5-.3,4.438,4.438,0,0,0-.62-.25q-.391-.132-.655-.207l-.712-.2c-.059-.017-.1-.029-.132-.035q-.51-.132-.831-.229t-.769-.268a5.077,5.077,0,0,1-.734-.338,5.02,5.02,0,0,1-.6-.422,2.18,2.18,0,0,1-.5-.549,2.929,2.929,0,0,1-.3-.7,3.386,3.386,0,0,1,.457-2.779,3.369,3.369,0,0,1,1.485-1.16,5.385,5.385,0,0,1,2.043-.369,5.6,5.6,0,0,1,2.975.76,3.39,3.39,0,0,1,1.585,2.252l-1.529.387a2.328,2.328,0,0,0-1.028-1.521,3.53,3.53,0,0,0-1.934-.51,3.838,3.838,0,0,0-.949.114,2.837,2.837,0,0,0-.822.352,1.705,1.705,0,0,0-.593.646,1.967,1.967,0,0,0-.22.945,1.5,1.5,0,0,0,.088.523,1.6,1.6,0,0,0,.22.417,1.564,1.564,0,0,0,.378.343,3.873,3.873,0,0,0,.461.272,4.738,4.738,0,0,0,.576.224c.24.079.445.144.615.193s.4.109.677.18a14.246,14.246,0,0,1,2.382.791,3.015,3.015,0,0,1,1.837,2.276,3.856,3.856,0,0,1,.035.536,3.464,3.464,0,0,1-.356,1.6,2.886,2.886,0,0,1-.976,1.107,4.663,4.663,0,0,1-1.389.62,6.335,6.335,0,0,1-1.656.208Zm12.647,0a6.582,6.582,0,0,1-2.435-.444,5.885,5.885,0,0,1-1.956-1.248,5.562,5.562,0,0,1-1.3-2.008A7.268,7.268,0,0,1,375,197.8a7.143,7.143,0,0,1,.475-2.65,5.555,5.555,0,0,1,3.255-3.25,6.622,6.622,0,0,1,2.435-.439,6.526,6.526,0,0,1,2.417.444,5.828,5.828,0,0,1,1.951,1.248,5.646,5.646,0,0,1,1.3,2,7.143,7.143,0,0,1,.475,2.65,7.234,7.234,0,0,1-.475,2.659,5.634,5.634,0,0,1-1.3,2.013,5.829,5.829,0,0,1-1.951,1.248,6.526,6.526,0,0,1-2.417.444Zm0-1.485a4.423,4.423,0,0,0,3.274-1.305,4.848,4.848,0,0,0,1.3-3.573,5.662,5.662,0,0,0-.356-2.057,4.233,4.233,0,0,0-.976-1.529,4.279,4.279,0,0,0-1.45-.932,4.865,4.865,0,0,0-1.789-.325,4.919,4.919,0,0,0-1.8.325,4.316,4.316,0,0,0-1.459.932,4.2,4.2,0,0,0-.98,1.529,5.663,5.663,0,0,0-.356,2.057,5.757,5.757,0,0,0,.356,2.074,4.2,4.2,0,0,0,.98,1.538,4.383,4.383,0,0,0,1.459.936,4.873,4.873,0,0,0,1.8.335Zm17.482-11.052h1.564V204h-1.661l-6.671-10.011V204h-1.547V191.625h1.644l6.671,9.967ZM412.041,204l-1.063-2.962h-5.6L404.324,204H402.68l4.562-12.375h1.881L413.684,204Zm-6.161-4.351h4.6l-2.3-6.442Zm11.47,4.518a5.5,5.5,0,0,1-2.707-.729l.686-1.336a3.321,3.321,0,0,0,1.907.606,1.941,1.941,0,0,0,1.578-.681,2.861,2.861,0,0,0,.567-1.885v-8.517h1.573v8.789a3.762,3.762,0,0,1-.984,2.747,3.5,3.5,0,0,1-2.621,1.006Zm13.939-11.109h-5.027v4.052h4.43v1.415h-4.43v4.043h5.027V204h-6.636V191.625h6.636Zm10.911-1.433h1.424V204h-1.5V193.286l-2.971,2.575v-1.626Zm-95.48,40.761a7.3,7.3,0,0,1-2.711-3.573,17.364,17.364,0,0,1,0-11.553,7.3,7.3,0,0,1,2.711-3.586l.809,1a6.162,6.162,0,0,0-2.312,3.133,16.475,16.475,0,0,0-.005,10.45,6.119,6.119,0,0,0,2.316,3.116ZM357.794,228l-1.063-2.962h-5.6L350.078,228h-1.644L353,215.625h1.881L359.438,228Zm-6.161-4.351h4.605l-2.3-6.442Zm13.342,4.509a4.162,4.162,0,0,1-3.094-1.239,4.922,4.922,0,0,1-.005-6.486,4.5,4.5,0,0,1,5.6-.483,3.815,3.815,0,0,1,1.455,2.1l-1.424.229a2.588,2.588,0,0,0-2.54-1.82,2.555,2.555,0,0,0-2,.888,3.835,3.835,0,0,0,0,4.654,2.563,2.563,0,0,0,2,.883,2.588,2.588,0,0,0,2.54-1.82l1.424.237a3.821,3.821,0,0,1-1.463,2.1A4.189,4.189,0,0,1,364.975,228.158Zm9.835.009a4.559,4.559,0,0,1-2.215-.536,3.894,3.894,0,0,1-1.56-1.569,4.816,4.816,0,0,1-.576-2.386,4.4,4.4,0,0,1,1.226-3.256,4.6,4.6,0,0,1,6.253,0,4.955,4.955,0,0,1,0,6.521A4.232,4.232,0,0,1,374.81,228.167Zm-.01-1.267a2.655,2.655,0,0,0,2.043-.888,3.755,3.755,0,0,0,0-4.667,2.656,2.656,0,0,0-2.043-.888,2.617,2.617,0,0,0-2.026.888,3.788,3.788,0,0,0,0,4.667A2.617,2.617,0,0,0,374.8,226.9Zm9.5,1.1a2.27,2.27,0,0,1-1.687-.62,2.348,2.348,0,0,1-.613-1.727v-5.08h-1.767V219.36h.65a1.251,1.251,0,0,0,.954-.3,1.488,1.488,0,0,0,.277-1.015v-1.567h1.415v2.882h1.986v1.213h-1.986V225.5a1.31,1.31,0,0,0,.33.954,1.155,1.155,0,0,0,.866.338h.791V228Zm5.3.167a2.939,2.939,0,0,1-1.894-.593,2.129,2.129,0,0,1-.743-1.771,2.513,2.513,0,0,1,.237-1.129,1.99,1.99,0,0,1,.7-.787,4.239,4.239,0,0,1,1.015-.488,9.4,9.4,0,0,1,1.314-.312l1.4-.229q.765-.141.765-.8a1.51,1.51,0,0,0-.541-1.288,2.206,2.206,0,0,0-1.367-.409,2.24,2.24,0,0,0-1.354.4,1.655,1.655,0,0,0-.642,1.213l-1.371-.29a2.639,2.639,0,0,1,1.081-1.85,4.035,4.035,0,0,1,2.355-.62,4.809,4.809,0,0,1,1.252.154,3.4,3.4,0,0,1,1.046.483,2.177,2.177,0,0,1,.747.932,3.469,3.469,0,0,1,.268,1.419v3.568a1.463,1.463,0,0,0,.2.9.857.857,0,0,0,.681.233h.141V228h-.756a1.442,1.442,0,0,1-1.635-1.169h-.07a3.3,3.3,0,0,1-2.829,1.336Zm.352-1.23a2.3,2.3,0,0,0,1.854-.835,3.44,3.44,0,0,0,.7-2.285l-2.285.439a3.082,3.082,0,0,0-1.34.479,1.114,1.114,0,0,0-.435.945,1.1,1.1,0,0,0,.417.949,1.787,1.787,0,0,0,1.091.308Zm10.494,1.222a4.162,4.162,0,0,1-3.094-1.239,4.922,4.922,0,0,1-.005-6.486,4.5,4.5,0,0,1,5.6-.483,3.815,3.815,0,0,1,1.455,2.1l-1.424.229a2.592,2.592,0,0,0-2.542-1.821,2.555,2.555,0,0,0-2,.888,3.835,3.835,0,0,0,0,4.654,2.563,2.563,0,0,0,2,.883,2.588,2.588,0,0,0,2.54-1.82l1.424.237a3.821,3.821,0,0,1-1.463,2.1,4.191,4.191,0,0,1-2.489.757Zm6.97-10.828a1.035,1.035,0,0,1-1.028-1.028.974.974,0,0,1,.3-.721,1,1,0,0,1,.725-.3.985.985,0,0,1,.716.3.974.974,0,0,1,.3.721,1.028,1.028,0,0,1-1.012,1.027ZM406.644,228v-8.64h1.529V228Zm7.682-10.125,2.206-2.865.809.589-1.969,2.276Zm.58,10.292a4.559,4.559,0,0,1-2.215-.536,3.894,3.894,0,0,1-1.56-1.569,4.816,4.816,0,0,1-.576-2.386,4.4,4.4,0,0,1,1.226-3.256,4.6,4.6,0,0,1,6.253,0,4.955,4.955,0,0,1,0,6.521A4.232,4.232,0,0,1,414.906,228.167ZM414.9,226.9a2.656,2.656,0,0,0,2.043-.888,3.755,3.755,0,0,0,0-4.667,2.656,2.656,0,0,0-2.043-.888,2.617,2.617,0,0,0-2.026.888,3.788,3.788,0,0,0,0,4.667A2.617,2.617,0,0,0,414.9,226.9Zm10.819-7.708a3.006,3.006,0,0,1,2.175.782,2.921,2.921,0,0,1,.813,2.206V228h-1.521v-5.476a2.044,2.044,0,0,0-.527-1.547,1.881,1.881,0,0,0-1.354-.5,2.092,2.092,0,0,0-1.538.593,2.407,2.407,0,0,0-.606,1.762V228H421.64v-8.64h1.521v1.107a2.884,2.884,0,0,1,2.555-1.274Zm5.563,13.192-.809-1.011a6.12,6.12,0,0,0,2.316-3.116,16.475,16.475,0,0,0-.005-10.45,6.162,6.162,0,0,0-2.312-3.133l.809-1a7.3,7.3,0,0,1,2.711,3.586,17.364,17.364,0,0,1,0,11.553,7.3,7.3,0,0,1-2.712,3.573ZM257.608,252V239.625h3.99a5.912,5.912,0,0,1,3.151.8,4.874,4.874,0,0,1,1.934,2.175,7.651,7.651,0,0,1,.628,3.2,8.087,8.087,0,0,1-.365,2.5,5.67,5.67,0,0,1-1.068,1.956,4.684,4.684,0,0,1-1.8,1.283A6.392,6.392,0,0,1,261.6,252Zm1.573-1.433h2.364a3.767,3.767,0,0,0,3.089-1.266,6.355,6.355,0,0,0,0-6.98,3.774,3.774,0,0,0-3.085-1.266h-2.364Zm11.566-9.237a1.035,1.035,0,0,1-1.028-1.028.974.974,0,0,1,.3-.721,1,1,0,0,1,.725-.3.985.985,0,0,1,.716.3.974.974,0,0,1,.3.721,1.03,1.03,0,0,1-1.012,1.028ZM269.974,252v-8.64H271.5V252Zm7.242-10.134L279.422,239l.809.589-1.969,2.276Zm-.624,10.3a2.941,2.941,0,0,1-1.894-.593,2.129,2.129,0,0,1-.743-1.771,2.528,2.528,0,0,1,.237-1.129,1.99,1.99,0,0,1,.7-.787,4.239,4.239,0,0,1,1.015-.488,9.4,9.4,0,0,1,1.314-.312l1.4-.229q.765-.141.765-.8a1.51,1.51,0,0,0-.541-1.288,2.206,2.206,0,0,0-1.367-.409,2.24,2.24,0,0,0-1.354.4,1.655,1.655,0,0,0-.642,1.213l-1.371-.29a2.639,2.639,0,0,1,1.081-1.85,4.037,4.037,0,0,1,2.355-.62,4.809,4.809,0,0,1,1.252.154,3.4,3.4,0,0,1,1.046.483,2.177,2.177,0,0,1,.747.932,3.469,3.469,0,0,1,.268,1.419v3.568a1.463,1.463,0,0,0,.2.9.857.857,0,0,0,.681.233h.141V252h-.756a1.442,1.442,0,0,1-1.635-1.169h-.07a3.3,3.3,0,0,1-2.829,1.336Zm.352-1.23a2.3,2.3,0,0,0,1.856-.836,3.44,3.44,0,0,0,.7-2.285l-2.285.439a3.082,3.082,0,0,0-1.34.479,1.114,1.114,0,0,0-.435.945,1.1,1.1,0,0,0,.417.949,1.789,1.789,0,0,0,1.087.31ZM284.028,252V238.5h1.538V252Zm8.271.167a4.559,4.559,0,0,1-2.215-.536,3.894,3.894,0,0,1-1.56-1.569,4.816,4.816,0,0,1-.576-2.386,4.4,4.4,0,0,1,1.226-3.256,4.6,4.6,0,0,1,6.253,0,4.957,4.957,0,0,1,0,6.521,4.235,4.235,0,0,1-3.127,1.226Zm-.009-1.267a2.656,2.656,0,0,0,2.043-.888,3.755,3.755,0,0,0,0-4.667,2.656,2.656,0,0,0-2.043-.888,2.617,2.617,0,0,0-2.026.888,3.788,3.788,0,0,0,0,4.667A2.617,2.617,0,0,0,292.29,250.9Zm13-7.541h1.477v8.2a4.705,4.705,0,0,1-1.116,3.366,4.648,4.648,0,0,1-7.286-1.468l1.257-.615a2.857,2.857,0,0,0,2.892,2,2.481,2.481,0,0,0,2.023-.842,3.589,3.589,0,0,0,.7-2.355v-1.6a3.039,3.039,0,0,1-1.23,1.244,3.572,3.572,0,0,1-1.8.47,3.7,3.7,0,0,1-2.8-1.217,4.655,4.655,0,0,1,0-6.135,3.74,3.74,0,0,1,2.808-1.208,3.493,3.493,0,0,1,1.811.483,3.111,3.111,0,0,1,1.222,1.274Zm-2.742,7.1a2.615,2.615,0,0,0,1.991-.888,3.136,3.136,0,0,0,0-4.228,2.708,2.708,0,0,0-3.825-.185c-.056.051-.11.1-.161.159a3.2,3.2,0,0,0,.009,4.276,2.634,2.634,0,0,0,1.984.869Zm10.952,1.708a4.559,4.559,0,0,1-2.215-.536,3.894,3.894,0,0,1-1.56-1.569,4.816,4.816,0,0,1-.576-2.386,4.4,4.4,0,0,1,1.226-3.256,4.6,4.6,0,0,1,6.253,0,4.957,4.957,0,0,1,0,6.521A4.233,4.233,0,0,1,313.5,252.167Zm-.009-1.266a2.656,2.656,0,0,0,2.043-.888,3.755,3.755,0,0,0,0-4.667,2.656,2.656,0,0,0-2.043-.888,2.617,2.617,0,0,0-2.026.888,3.788,3.788,0,0,0,0,4.667,2.616,2.616,0,0,0,2.024.887Zm7.031,4.271h-1.107l1.072-5.449h1.591ZM329.713,252V238.5h1.538V252Zm8.271.167a4.559,4.559,0,0,1-2.215-.536,3.894,3.894,0,0,1-1.56-1.569,4.816,4.816,0,0,1-.576-2.386,4.4,4.4,0,0,1,1.226-3.256,4.6,4.6,0,0,1,6.253,0,4.957,4.957,0,0,1,0,6.521A4.233,4.233,0,0,1,337.984,252.167Zm-.009-1.266a2.656,2.656,0,0,0,2.043-.888,3.755,3.755,0,0,0,0-4.667,2.656,2.656,0,0,0-2.043-.888,2.617,2.617,0,0,0-2.026.888,3.788,3.788,0,0,0,0,4.667,2.616,2.616,0,0,0,2.026.887Zm17.833-7.541h1.468v12.99h-1.521v-5.958a3.151,3.151,0,0,1-1.23,1.305,3.438,3.438,0,0,1-1.793.488,3.792,3.792,0,0,1-2.878-1.239,4.568,4.568,0,0,1-1.165-3.261,5.237,5.237,0,0,1,.321-1.863,4.121,4.121,0,0,1,.87-1.424,3.938,3.938,0,0,1,2.852-1.2,3.435,3.435,0,0,1,1.811.492,3.157,3.157,0,0,1,1.23,1.327Zm-2.786,7.506a2.621,2.621,0,0,0,2.03-.91,3.546,3.546,0,0,0,0-4.535,2.721,2.721,0,0,0-3.842-.22q-.1.085-.183.18a3.68,3.68,0,0,0,0,4.614A2.627,2.627,0,0,0,353.022,250.866Zm12.735-7.506h1.521V252h-1.459l-.035-1.143a2.7,2.7,0,0,1-1.072.971,3.3,3.3,0,0,1-1.512.338,3.006,3.006,0,0,1-2.175-.782,2.921,2.921,0,0,1-.813-2.206V243.36h1.521v5.476a2.052,2.052,0,0,0,.532,1.547,1.881,1.881,0,0,0,1.358.51,2.068,2.068,0,0,0,1.534-.6,2.432,2.432,0,0,0,.6-1.767Zm12.173,4.148-.018.413h-6.75a3.053,3.053,0,0,0,.826,2.21,2.715,2.715,0,0,0,1.969.769,2.59,2.59,0,0,0,1.433-.413,2.681,2.681,0,0,0,.984-1.143l1.371.29a3.9,3.9,0,0,1-1.477,1.854,4.022,4.022,0,0,1-2.294.677,4.171,4.171,0,0,1-3.111-1.2,5.126,5.126,0,0,1,0-6.565,4.123,4.123,0,0,1,3.063-1.2,3.9,3.9,0,0,1,2.9,1.107,4.375,4.375,0,0,1,1.1,3.2Zm-4-3.146a2.692,2.692,0,0,0-1.8.611,2.8,2.8,0,0,0-.91,1.78h5.18a2.567,2.567,0,0,0-.756-1.78,2.439,2.439,0,0,0-1.713-.611Zm17.439-5.862h1.521V252h-1.468l-.035-1.679a3.177,3.177,0,0,1-1.23,1.362,3.433,3.433,0,0,1-1.828.5,3.925,3.925,0,0,1-2.852-1.217,4.147,4.147,0,0,1-.87-1.428,5.233,5.233,0,0,1-.321-1.854,4.546,4.546,0,0,1,1.173-3.243,3.789,3.789,0,0,1,2.87-1.248,3.447,3.447,0,0,1,1.806.488A3.2,3.2,0,0,1,391.369,245Zm-2.725,12.366a2.586,2.586,0,0,0,2.008-.91,3.568,3.568,0,0,0,0-4.54,2.586,2.586,0,0,0-2-.914,2.644,2.644,0,0,0-2.021.883,3.639,3.639,0,0,0,0,4.6,2.644,2.644,0,0,0,2.013.881Zm8.112-9.536a1.035,1.035,0,0,1-1.028-1.028.974.974,0,0,1,.3-.721,1,1,0,0,1,.725-.3.985.985,0,0,1,.716.3.974.974,0,0,1,.3.721,1.03,1.03,0,0,1-1.013,1.028ZM395.983,252v-8.64h1.529V252Zm8.209.158a4.162,4.162,0,0,1-3.094-1.239,4.922,4.922,0,0,1,0-6.486,4.5,4.5,0,0,1,5.6-.483,3.815,3.815,0,0,1,1.455,2.1l-1.424.229a2.588,2.588,0,0,0-2.54-1.82,2.555,2.555,0,0,0-2,.888,3.835,3.835,0,0,0,0,4.654,2.563,2.563,0,0,0,2,.883,2.588,2.588,0,0,0,2.54-1.82l1.424.237a3.822,3.822,0,0,1-1.463,2.1,4.19,4.19,0,0,1-2.5.757Zm13.755-4.649-.018.413h-6.75a3.053,3.053,0,0,0,.826,2.21,2.715,2.715,0,0,0,1.969.769,2.59,2.59,0,0,0,1.433-.413,2.681,2.681,0,0,0,.984-1.143l1.371.29a3.9,3.9,0,0,1-1.477,1.854,4.022,4.022,0,0,1-2.294.677,4.171,4.171,0,0,1-3.111-1.2,5.126,5.126,0,0,1,0-6.565,4.123,4.123,0,0,1,3.063-1.2,3.9,3.9,0,0,1,2.9,1.107,4.377,4.377,0,0,1,1.1,3.2Zm-4-3.146a2.692,2.692,0,0,0-1.8.611,2.8,2.8,0,0,0-.91,1.78h5.177a2.568,2.568,0,0,0-.756-1.78,2.44,2.44,0,0,0-1.71-.612Zm18.615,3.146-.018.413H425.8a3.053,3.053,0,0,0,.826,2.21,2.715,2.715,0,0,0,1.969.769,2.59,2.59,0,0,0,1.433-.413,2.681,2.681,0,0,0,.984-1.143l1.371.29a3.9,3.9,0,0,1-1.483,1.855,4.025,4.025,0,0,1-2.294.677,4.171,4.171,0,0,1-3.111-1.2,5.126,5.126,0,0,1,0-6.565,4.123,4.123,0,0,1,3.063-1.2,3.9,3.9,0,0,1,2.9,1.107,4.374,4.374,0,0,1,1.1,3.2Zm-4-3.146a2.692,2.692,0,0,0-1.8.611,2.8,2.8,0,0,0-.91,1.78h5.177a2.567,2.567,0,0,0-.756-1.78,2.443,2.443,0,0,0-1.709-.612ZM434.945,252V238.5h1.538V252Zm13.869-8.807a3.929,3.929,0,0,1,1.564.316,3.84,3.84,0,0,1,1.283.888,4.145,4.145,0,0,1,.866,1.424,5.237,5.237,0,0,1,.321,1.863,4.567,4.567,0,0,1-1.165,3.261,3.78,3.78,0,0,1-2.87,1.239,3.421,3.421,0,0,1-1.806-.492,3.224,3.224,0,0,1-1.235-1.327v5.985h-1.521V243.36h1.468l.035,1.679a3.157,3.157,0,0,1,1.23-1.349A3.46,3.46,0,0,1,448.814,243.193Zm-.3,7.673a2.624,2.624,0,0,0,2-.875,3.674,3.674,0,0,0,0-4.61,2.726,2.726,0,0,0-3.853-.141c-.061.058-.121.118-.177.181a3.526,3.526,0,0,0,0,4.535,2.637,2.637,0,0,0,2.031.91Zm14.291-3.357-.018.413h-6.75a3.053,3.053,0,0,0,.826,2.21,2.715,2.715,0,0,0,1.969.769,2.59,2.59,0,0,0,1.433-.413,2.681,2.681,0,0,0,.984-1.143l1.371.29a3.9,3.9,0,0,1-1.477,1.854,4.022,4.022,0,0,1-2.294.677,4.171,4.171,0,0,1-3.111-1.2,5.126,5.126,0,0,1,0-6.565,4.123,4.123,0,0,1,3.063-1.2,3.9,3.9,0,0,1,2.9,1.107,4.376,4.376,0,0,1,1.105,3.2Zm-4-3.146a2.692,2.692,0,0,0-1.8.611,2.8,2.8,0,0,0-.91,1.78h5.177a2.568,2.568,0,0,0-.756-1.78,2.443,2.443,0,0,0-1.709-.612Zm7.866.519a2.616,2.616,0,0,1,1.072-1.16,3.227,3.227,0,0,1,1.661-.457V244.7a2.845,2.845,0,0,0-2.008.642,2.681,2.681,0,0,0-.69,2.048V252h-1.521v-8.64h1.485Zm7.251,7.286a4.1,4.1,0,0,1-2.329-.624,2.579,2.579,0,0,1-1.134-1.775l1.327-.378a1.854,1.854,0,0,0,.708,1.2,2.3,2.3,0,0,0,1.419.426,2.85,2.85,0,0,0,.831-.114,1.333,1.333,0,0,0,.637-.426,1.187,1.187,0,0,0,.185-1.143,1.52,1.52,0,0,0-.141-.286.881.881,0,0,0-.246-.237,3.31,3.31,0,0,0-.3-.185,3.041,3.041,0,0,0-.391-.163q-.26-.092-.417-.141t-.483-.141c-.217-.061-.383-.11-.5-.145a9.224,9.224,0,0,1-.9-.316,3.927,3.927,0,0,1-.729-.417,1.676,1.676,0,0,1-.567-.681,2.3,2.3,0,0,1-.189-.967,2.237,2.237,0,0,1,.422-1.38,2.373,2.373,0,0,1,1.094-.813,4.377,4.377,0,0,1,1.534-.25,3.748,3.748,0,0,1,2.1.563,2.4,2.4,0,0,1,1.05,1.688l-1.248.316a1.655,1.655,0,0,0-.659-1.094,2.1,2.1,0,0,0-1.239-.365,2.14,2.14,0,0,0-1.16.3,1.02,1.02,0,0,0-.483.927.926.926,0,0,0,.127.479,1.519,1.519,0,0,0,.259.338,1.591,1.591,0,0,0,.475.259c.229.091.4.152.51.185s.322.087.633.163c.059.017.1.029.132.035q.51.132.831.233a5.053,5.053,0,0,1,.747.316,2.459,2.459,0,0,1,.672.47,2.18,2.18,0,0,1,.422.668,2.365,2.365,0,0,1,.176.932,2.516,2.516,0,0,1-.259,1.165,2.032,2.032,0,0,1-.708.8,3.422,3.422,0,0,1-1.006.435,4.812,4.812,0,0,1-1.2.142Zm9.211,0a4.559,4.559,0,0,1-2.215-.536,3.9,3.9,0,0,1-1.56-1.569,4.817,4.817,0,0,1-.576-2.386,4.4,4.4,0,0,1,1.226-3.256,4.6,4.6,0,0,1,6.253,0,4.957,4.957,0,0,1,0,6.521,4.233,4.233,0,0,1-3.126,1.225Zm-.009-1.266a2.656,2.656,0,0,0,2.043-.888,3.755,3.755,0,0,0,0-4.667,2.656,2.656,0,0,0-2.043-.888,2.617,2.617,0,0,0-2.026.888,3.788,3.788,0,0,0,0,4.667,2.616,2.616,0,0,0,2.028.886Zm10.819-7.708a3.006,3.006,0,0,1,2.175.782,2.921,2.921,0,0,1,.813,2.206V252H495.41v-5.476a2.044,2.044,0,0,0-.527-1.547,1.881,1.881,0,0,0-1.354-.5,2.092,2.092,0,0,0-1.538.593,2.407,2.407,0,0,0-.606,1.762V252h-1.521v-8.64h1.521v1.107a2.885,2.885,0,0,1,2.561-1.274Zm7.919,8.974a2.941,2.941,0,0,1-1.894-.593,2.129,2.129,0,0,1-.743-1.771,2.527,2.527,0,0,1,.237-1.129,1.99,1.99,0,0,1,.7-.787,4.239,4.239,0,0,1,1.015-.488,9.4,9.4,0,0,1,1.314-.312l1.4-.229q.765-.141.765-.8a1.51,1.51,0,0,0-.541-1.288,2.206,2.206,0,0,0-1.367-.409,2.24,2.24,0,0,0-1.354.4,1.655,1.655,0,0,0-.642,1.213l-1.371-.29a2.639,2.639,0,0,1,1.081-1.85,4.037,4.037,0,0,1,2.355-.62,4.809,4.809,0,0,1,1.252.154,3.4,3.4,0,0,1,1.046.483,2.177,2.177,0,0,1,.747.932,3.47,3.47,0,0,1,.268,1.419v3.568a1.463,1.463,0,0,0,.2.9.857.857,0,0,0,.681.233h.141V252H506.4a1.442,1.442,0,0,1-1.635-1.169h-.07a3.3,3.3,0,0,1-2.83,1.336Zm.352-1.23a2.3,2.3,0,0,0,1.854-.835,3.44,3.44,0,0,0,.7-2.285l-2.285.439a3.081,3.081,0,0,0-1.34.479,1.114,1.114,0,0,0-.435.945,1.1,1.1,0,0,0,.417.949,1.787,1.787,0,0,0,1.091.307Zm7.866-9.606a1.035,1.035,0,0,1-1.028-1.028.974.974,0,0,1,.3-.721,1,1,0,0,1,.725-.3.985.985,0,0,1,.716.3.974.974,0,0,1,.3.721,1.026,1.026,0,0,1-1.01,1.026Zm-2.769,14.713v-1.294a2.469,2.469,0,0,0,1.239-.246,1.347,1.347,0,0,0,.58-.844,7.087,7.087,0,0,0,.167-1.784V243.36h1.538v8.517a5.023,5.023,0,0,1-.8,3.226,3.415,3.415,0,0,1-2.721.94Zm14.189-8.536-.018.413h-6.75a3.053,3.053,0,0,0,.826,2.21,2.715,2.715,0,0,0,1.969.769,2.59,2.59,0,0,0,1.433-.413,2.681,2.681,0,0,0,.984-1.143l1.371.29a3.9,3.9,0,0,1-1.477,1.854,4.023,4.023,0,0,1-2.294.677,4.171,4.171,0,0,1-3.111-1.2,5.126,5.126,0,0,1,0-6.565,4.123,4.123,0,0,1,3.063-1.2,3.9,3.9,0,0,1,2.9,1.107A4.377,4.377,0,0,1,521.5,247.509Zm-4-3.146a2.692,2.692,0,0,0-1.8.611,2.8,2.8,0,0,0-.91,1.78h5.177a2.568,2.568,0,0,0-.756-1.78,2.437,2.437,0,0,0-1.711-.612Z" transform="translate(418 5805)" fill="#00223d"/>
      <path id="Trazado_27797" data-name="Trazado 27797" d="M337.457,293.625a3.669,3.669,0,0,1,1.938.514,3.474,3.474,0,0,1,1.3,1.375,4.042,4.042,0,0,1,.453,1.907,3.754,3.754,0,0,1-1.024,2.694,3.514,3.514,0,0,1-2.667,1.077h-3.111V306h-1.573V293.625Zm-.229,6.2a2.25,2.25,0,0,0,1.723-.664,2.763,2.763,0,0,0,0-3.5,2.237,2.237,0,0,0-1.723-.672h-2.883v4.834Zm13.315-4.764h-5.027v4.052h4.43v1.415h-4.43v4.043h5.027V306h-6.636V293.625h6.636ZM360.255,306l-3.182-5.581h-1.942V306h-1.573V293.625h4.1a3.7,3.7,0,0,1,2.773.98,3.459,3.459,0,0,1,.954,2.518,3.1,3.1,0,0,1-2.742,3.234L362.092,306Zm-5.124-11v4.18h2.32a2.594,2.594,0,0,0,1.811-.558,1.96,1.96,0,0,0,.606-1.516,2,2,0,0,0-.611-1.529,2.554,2.554,0,0,0-1.8-.577Zm13.386,11.162a5.654,5.654,0,0,1-3.23-.875,3.7,3.7,0,0,1-1.613-2.4l1.591-.378a2.61,2.61,0,0,0,1.116,1.688,3.772,3.772,0,0,0,2.188.615,4.57,4.57,0,0,0,.817-.07,3.128,3.128,0,0,0,.743-.233,2.3,2.3,0,0,0,.611-.4,1.666,1.666,0,0,0,.4-.606,2.064,2.064,0,0,0,.141-.826,1.793,1.793,0,0,0-.11-.584,1.858,1.858,0,0,0-.246-.461,1.671,1.671,0,0,0-.417-.374,5.377,5.377,0,0,0-.5-.3,4.436,4.436,0,0,0-.62-.25q-.391-.132-.655-.207l-.712-.2c-.059-.017-.1-.029-.132-.035q-.51-.132-.831-.229t-.769-.268a5.08,5.08,0,0,1-.734-.338,5.02,5.02,0,0,1-.6-.422,2.179,2.179,0,0,1-.5-.549,2.929,2.929,0,0,1-.3-.7,3.386,3.386,0,0,1,.457-2.779,3.369,3.369,0,0,1,1.485-1.16,5.385,5.385,0,0,1,2.043-.369,5.6,5.6,0,0,1,2.975.76,3.39,3.39,0,0,1,1.585,2.252l-1.529.387a2.328,2.328,0,0,0-1.028-1.521,3.53,3.53,0,0,0-1.934-.51,3.839,3.839,0,0,0-.949.114,2.837,2.837,0,0,0-.822.352,1.705,1.705,0,0,0-.593.646,1.967,1.967,0,0,0-.22.945,1.5,1.5,0,0,0,.088.523,1.6,1.6,0,0,0,.22.417,1.564,1.564,0,0,0,.378.343,3.877,3.877,0,0,0,.461.272,4.736,4.736,0,0,0,.576.224c.24.079.445.144.615.193s.4.109.677.18a14.247,14.247,0,0,1,2.382.791,3.015,3.015,0,0,1,1.837,2.276,3.855,3.855,0,0,1,.035.536,3.464,3.464,0,0,1-.356,1.6,2.886,2.886,0,0,1-.976,1.107,4.664,4.664,0,0,1-1.389.62,6.335,6.335,0,0,1-1.656.208Zm12.647,0a6.581,6.581,0,0,1-2.435-.444,5.885,5.885,0,0,1-1.956-1.248,5.562,5.562,0,0,1-1.3-2.008A7.268,7.268,0,0,1,375,299.8a7.143,7.143,0,0,1,.475-2.65,5.555,5.555,0,0,1,3.255-3.25,6.622,6.622,0,0,1,2.435-.439,6.526,6.526,0,0,1,2.417.444,5.828,5.828,0,0,1,1.951,1.248,5.646,5.646,0,0,1,1.3,2,7.143,7.143,0,0,1,.475,2.65,7.234,7.234,0,0,1-.475,2.659,5.634,5.634,0,0,1-1.3,2.013,5.829,5.829,0,0,1-1.951,1.248,6.525,6.525,0,0,1-2.417.444Zm0-1.485a4.423,4.423,0,0,0,3.274-1.3,4.848,4.848,0,0,0,1.3-3.573,5.662,5.662,0,0,0-.356-2.057,4.233,4.233,0,0,0-.976-1.529,4.279,4.279,0,0,0-1.45-.932,4.865,4.865,0,0,0-1.789-.325,4.919,4.919,0,0,0-1.8.325,4.316,4.316,0,0,0-1.459.932,4.2,4.2,0,0,0-.98,1.529,5.663,5.663,0,0,0-.356,2.057,5.757,5.757,0,0,0,.356,2.074,4.2,4.2,0,0,0,.98,1.538,4.383,4.383,0,0,0,1.459.936,4.873,4.873,0,0,0,1.8.335Zm17.482-11.052h1.564V306h-1.661l-6.671-10.011V306h-1.547V293.625h1.644l6.671,9.967ZM412.041,306l-1.063-2.962h-5.6L404.324,306H402.68l4.562-12.375h1.881L413.684,306Zm-6.161-4.351h4.6l-2.3-6.442Zm11.47,4.518a5.5,5.5,0,0,1-2.707-.729l.686-1.336a3.321,3.321,0,0,0,1.907.606,1.941,1.941,0,0,0,1.578-.681,2.861,2.861,0,0,0,.567-1.885v-8.517h1.573v8.789a3.762,3.762,0,0,1-.984,2.747,3.5,3.5,0,0,1-2.621,1.006Zm13.939-11.109h-5.027v4.052h4.43v1.415h-4.43v4.043h5.027V306h-6.636V293.625h6.636ZM440.1,304.6h6.161V306h-8.35v-1.151l4.957-5.124a5.874,5.874,0,0,0,1.116-1.468,2.924,2.924,0,0,0,.308-1.274,2.138,2.138,0,0,0-.624-1.639,2.547,2.547,0,0,0-3.309.053,2.742,2.742,0,0,0-.628,1.991v.912l-1.521-.141V297.4a3.913,3.913,0,0,1,1.046-2.94,4.33,4.33,0,0,1,5.48-.075,3.269,3.269,0,0,1,1.05,2.566,3.887,3.887,0,0,1-.417,1.789,7.687,7.687,0,0,1-1.34,1.78ZM277.638,328.567h4.3V330h-5.871V317.625h1.573Zm8.341,1.6a2.941,2.941,0,0,1-1.894-.593,2.129,2.129,0,0,1-.743-1.771,2.527,2.527,0,0,1,.237-1.129,1.99,1.99,0,0,1,.7-.787,4.239,4.239,0,0,1,1.021-.487,9.4,9.4,0,0,1,1.314-.312l1.4-.229q.765-.141.765-.8a1.51,1.51,0,0,0-.541-1.288,2.206,2.206,0,0,0-1.367-.409,2.238,2.238,0,0,0-1.354.4,1.655,1.655,0,0,0-.642,1.213l-1.371-.29a2.639,2.639,0,0,1,1.081-1.85,4.035,4.035,0,0,1,2.355-.62,4.81,4.81,0,0,1,1.252.154,3.4,3.4,0,0,1,1.046.483,2.177,2.177,0,0,1,.747.932,3.469,3.469,0,0,1,.268,1.419v3.568a1.463,1.463,0,0,0,.2.9.857.857,0,0,0,.681.233h.141V330h-.756a1.442,1.442,0,0,1-1.635-1.169h-.07A3.3,3.3,0,0,1,285.979,330.167Zm.352-1.23a2.3,2.3,0,0,0,1.854-.835,3.44,3.44,0,0,0,.7-2.285l-2.285.439a3.081,3.081,0,0,0-1.34.479,1.114,1.114,0,0,0-.435.945,1.1,1.1,0,0,0,.417.949,1.787,1.787,0,0,0,1.089.308Zm13.245-6.056a2.616,2.616,0,0,1,1.072-1.16,3.227,3.227,0,0,1,1.661-.457V322.7a2.845,2.845,0,0,0-2.008.642,2.681,2.681,0,0,0-.69,2.048V330H298.09v-8.64h1.485Zm10.459-5.317-1.969,2.276H307.02l2.206-2.865Zm1.512,7.945-.018.413h-6.75a3.053,3.053,0,0,0,.826,2.21,2.715,2.715,0,0,0,1.969.769,2.59,2.59,0,0,0,1.433-.413,2.681,2.681,0,0,0,.984-1.143l1.371.29a3.9,3.9,0,0,1-1.477,1.854,4.025,4.025,0,0,1-2.294.677,4.171,4.171,0,0,1-3.111-1.2,5.125,5.125,0,0,1,0-6.565,4.123,4.123,0,0,1,3.063-1.2,3.9,3.9,0,0,1,2.9,1.107,4.374,4.374,0,0,1,1.1,3.2Zm-4-3.146a2.692,2.692,0,0,0-1.8.611,2.8,2.8,0,0,0-.91,1.78h5.177a2.568,2.568,0,0,0-.756-1.78,2.438,2.438,0,0,0-1.711-.612Zm10.942-1.169a3.929,3.929,0,0,1,1.564.316,3.84,3.84,0,0,1,1.283.888,4.145,4.145,0,0,1,.866,1.424,5.238,5.238,0,0,1,.321,1.863,4.568,4.568,0,0,1-1.165,3.261,3.78,3.78,0,0,1-2.87,1.239,3.42,3.42,0,0,1-1.806-.492,3.224,3.224,0,0,1-1.235-1.327v5.985h-1.521V321.36H315.4l.035,1.679a3.157,3.157,0,0,1,1.23-1.349,3.458,3.458,0,0,1,1.825-.5Zm-.3,7.673a2.624,2.624,0,0,0,2-.875,3.674,3.674,0,0,0,0-4.61,2.726,2.726,0,0,0-3.853-.141c-.061.058-.121.118-.177.181a3.526,3.526,0,0,0,0,4.535,2.637,2.637,0,0,0,2.032.909ZM324.923,330V316.5h1.538V330Zm5.4-10.67a1.035,1.035,0,0,1-1.028-1.03.974.974,0,0,1,.3-.721,1,1,0,0,1,.725-.3.985.985,0,0,1,.716.3.974.974,0,0,1,.3.721.988.988,0,0,1-.3.725.978.978,0,0,1-.712.3ZM329.555,330v-8.64h1.529V330Zm8.209.158a4.162,4.162,0,0,1-3.094-1.239,4.922,4.922,0,0,1-.005-6.486,4.5,4.5,0,0,1,5.6-.483,3.815,3.815,0,0,1,1.455,2.1l-1.424.229a2.588,2.588,0,0,0-2.54-1.82,2.555,2.555,0,0,0-2,.888,3.835,3.835,0,0,0,0,4.654,2.563,2.563,0,0,0,2,.883,2.588,2.588,0,0,0,2.54-1.82l1.424.237a3.821,3.821,0,0,1-1.463,2.1,4.189,4.189,0,0,1-2.493.757Zm8.191.009a2.939,2.939,0,0,1-1.894-.593,2.128,2.128,0,0,1-.743-1.771,2.527,2.527,0,0,1,.237-1.129,1.99,1.99,0,0,1,.7-.787,4.24,4.24,0,0,1,1.015-.488,9.4,9.4,0,0,1,1.314-.312l1.4-.229q.765-.141.765-.8a1.51,1.51,0,0,0-.541-1.288,2.207,2.207,0,0,0-1.367-.409,2.24,2.24,0,0,0-1.354.4,1.655,1.655,0,0,0-.642,1.213l-1.371-.29a2.639,2.639,0,0,1,1.081-1.85,4.037,4.037,0,0,1,2.355-.62,4.809,4.809,0,0,1,1.252.154,3.4,3.4,0,0,1,1.046.483,2.177,2.177,0,0,1,.747.932,3.469,3.469,0,0,1,.268,1.419v3.568a1.463,1.463,0,0,0,.2.9.857.857,0,0,0,.681.233h.141V330h-.756a1.442,1.442,0,0,1-1.635-1.169h-.07a3.3,3.3,0,0,1-2.828,1.336Zm.352-1.23a2.3,2.3,0,0,0,1.854-.835,3.44,3.44,0,0,0,.7-2.285l-2.285.439a3.081,3.081,0,0,0-1.34.479,1.114,1.114,0,0,0-.435.945,1.1,1.1,0,0,0,.417.949,1.787,1.787,0,0,0,1.089.308ZM364.448,316.5h1.521V330H364.5l-.035-1.679a3.177,3.177,0,0,1-1.23,1.362,3.433,3.433,0,0,1-1.828.5,3.925,3.925,0,0,1-2.852-1.217,4.147,4.147,0,0,1-.87-1.428,5.233,5.233,0,0,1-.321-1.854,4.546,4.546,0,0,1,1.173-3.243,3.789,3.789,0,0,1,2.87-1.248,3.447,3.447,0,0,1,1.806.488A3.2,3.2,0,0,1,364.448,323Zm-2.725,12.366a2.586,2.586,0,0,0,2.008-.91,3.568,3.568,0,0,0,0-4.54,2.586,2.586,0,0,0-2-.914,2.643,2.643,0,0,0-2.021.883,3.639,3.639,0,0,0,0,4.6A2.644,2.644,0,0,0,361.723,328.866Zm14.9-3.357-.018.413h-6.75a3.053,3.053,0,0,0,.826,2.21,2.715,2.715,0,0,0,1.969.769,2.59,2.59,0,0,0,1.433-.413,2.681,2.681,0,0,0,.984-1.143l1.371.29a3.9,3.9,0,0,1-1.477,1.854,4.022,4.022,0,0,1-2.294.677,4.171,4.171,0,0,1-3.111-1.2,5.125,5.125,0,0,1,0-6.565,4.123,4.123,0,0,1,3.063-1.2,3.9,3.9,0,0,1,2.9,1.107,4.379,4.379,0,0,1,1.1,3.2Zm-4-3.146a2.692,2.692,0,0,0-1.8.611,2.8,2.8,0,0,0-.91,1.78h5.177a2.568,2.568,0,0,0-.756-1.78,2.442,2.442,0,0,0-1.712-.612ZM379,330V316.5h1.538V330Zm12.946.167a4.559,4.559,0,0,1-2.215-.536,3.9,3.9,0,0,1-1.56-1.569,4.817,4.817,0,0,1-.576-2.386,4.4,4.4,0,0,1,1.226-3.256,4.6,4.6,0,0,1,6.253,0,4.955,4.955,0,0,1,0,6.521,4.233,4.233,0,0,1-3.121,1.226Zm-.006-1.267a2.656,2.656,0,0,0,2.043-.888,3.755,3.755,0,0,0,0-4.667,2.656,2.656,0,0,0-2.043-.888,2.617,2.617,0,0,0-2.026.888,3.788,3.788,0,0,0,0,4.667A2.617,2.617,0,0,0,391.94,328.9Zm9.5,1.1a2.27,2.27,0,0,1-1.687-.62,2.344,2.344,0,0,1-.615-1.727v-5.08h-1.767V321.36h.65a1.251,1.251,0,0,0,.954-.3,1.488,1.488,0,0,0,.277-1.015v-1.567h1.415v2.882h1.986v1.213h-1.986V327.5a1.31,1.31,0,0,0,.33.954,1.154,1.154,0,0,0,.866.338h.791V330Zm4.9-7.119a2.616,2.616,0,0,1,1.072-1.16,3.227,3.227,0,0,1,1.661-.457V322.7a2.845,2.845,0,0,0-2.008.642,2.681,2.681,0,0,0-.69,2.048V330h-1.521v-8.64h1.485Zm8.051,7.286a4.559,4.559,0,0,1-2.215-.536,3.9,3.9,0,0,1-1.56-1.569,4.817,4.817,0,0,1-.576-2.386,4.4,4.4,0,0,1,1.226-3.256,4.6,4.6,0,0,1,6.253,0,4.955,4.955,0,0,1,0,6.521,4.233,4.233,0,0,1-3.128,1.226Zm-.009-1.266a2.656,2.656,0,0,0,2.043-.888,3.755,3.755,0,0,0,0-4.667,2.656,2.656,0,0,0-2.043-.888,2.617,2.617,0,0,0-2.026.888,3.788,3.788,0,0,0,0,4.667,2.618,2.618,0,0,0,2.022.887Zm15.979-7.708a3.929,3.929,0,0,1,1.564.316,3.839,3.839,0,0,1,1.283.888,4.145,4.145,0,0,1,.866,1.424,5.237,5.237,0,0,1,.321,1.863,4.567,4.567,0,0,1-1.165,3.261,3.78,3.78,0,0,1-2.87,1.239,3.42,3.42,0,0,1-1.806-.492,3.224,3.224,0,0,1-1.235-1.327v5.985H425.8V321.36h1.468l.035,1.679a3.157,3.157,0,0,1,1.23-1.349,3.458,3.458,0,0,1,1.824-.5Zm-.3,7.673a2.624,2.624,0,0,0,2-.875,3.674,3.674,0,0,0,0-4.61,2.726,2.726,0,0,0-3.853-.141c-.061.058-.121.118-.177.181a3.526,3.526,0,0,0,0,4.535,2.637,2.637,0,0,0,2.027.91Zm14.291-3.357-.018.413h-6.75a3.053,3.053,0,0,0,.826,2.21,2.715,2.715,0,0,0,1.969.769,2.59,2.59,0,0,0,1.433-.413,2.681,2.681,0,0,0,.984-1.143l1.371.29a3.9,3.9,0,0,1-1.477,1.854,4.022,4.022,0,0,1-2.294.677,4.171,4.171,0,0,1-3.111-1.2,5.125,5.125,0,0,1,0-6.565,4.123,4.123,0,0,1,3.063-1.2,3.9,3.9,0,0,1,2.9,1.107,4.378,4.378,0,0,1,1.1,3.2Zm-4-3.146a2.692,2.692,0,0,0-1.8.611,2.8,2.8,0,0,0-.91,1.78h5.177a2.568,2.568,0,0,0-.756-1.78,2.442,2.442,0,0,0-1.713-.612Zm7.866.519a2.616,2.616,0,0,1,1.072-1.16,3.227,3.227,0,0,1,1.661-.457V322.7a2.845,2.845,0,0,0-2.008.642,2.681,2.681,0,0,0-.69,2.048V330h-1.521v-8.64h1.485Zm7.251,7.286a4.1,4.1,0,0,1-2.329-.624,2.583,2.583,0,0,1-1.14-1.776l1.327-.378a1.854,1.854,0,0,0,.708,1.2,2.3,2.3,0,0,0,1.419.426,2.85,2.85,0,0,0,.831-.114,1.328,1.328,0,0,0,.637-.426,1.187,1.187,0,0,0,.185-1.143,1.519,1.519,0,0,0-.141-.286.882.882,0,0,0-.246-.237,3.317,3.317,0,0,0-.3-.185,3.041,3.041,0,0,0-.391-.163q-.26-.092-.417-.141t-.483-.141c-.217-.061-.383-.11-.5-.145a9.226,9.226,0,0,1-.9-.316A3.927,3.927,0,0,1,453,325.3a1.676,1.676,0,0,1-.567-.681,2.3,2.3,0,0,1-.189-.967,2.237,2.237,0,0,1,.422-1.38,2.373,2.373,0,0,1,1.094-.813,4.377,4.377,0,0,1,1.534-.25,3.749,3.749,0,0,1,2.1.563,2.4,2.4,0,0,1,1.05,1.688l-1.248.316a1.655,1.655,0,0,0-.659-1.094,2.1,2.1,0,0,0-1.239-.365,2.14,2.14,0,0,0-1.16.3,1.02,1.02,0,0,0-.483.927.926.926,0,0,0,.127.479,1.518,1.518,0,0,0,.259.338,1.592,1.592,0,0,0,.475.259c.229.091.4.152.51.185s.322.087.633.163c.059.017.1.029.132.035q.51.132.831.233a5.052,5.052,0,0,1,.747.316,2.458,2.458,0,0,1,.672.47,2.18,2.18,0,0,1,.422.668,2.365,2.365,0,0,1,.176.932,2.516,2.516,0,0,1-.259,1.165,2.031,2.031,0,0,1-.708.8,3.421,3.421,0,0,1-1.006.435,4.8,4.8,0,0,1-1.2.143Zm9.211,0a4.559,4.559,0,0,1-2.215-.536,3.894,3.894,0,0,1-1.56-1.569,4.816,4.816,0,0,1-.576-2.386,4.4,4.4,0,0,1,1.226-3.256,4.6,4.6,0,0,1,6.253,0,4.955,4.955,0,0,1,0,6.521,4.233,4.233,0,0,1-3.126,1.225Zm-.009-1.266a2.656,2.656,0,0,0,2.043-.888,3.755,3.755,0,0,0,0-4.667,2.656,2.656,0,0,0-2.043-.888,2.617,2.617,0,0,0-2.026.888,3.788,3.788,0,0,0,0,4.667,2.616,2.616,0,0,0,2.024.886Zm10.819-7.708a3.005,3.005,0,0,1,2.175.782,2.92,2.92,0,0,1,.813,2.206V330h-1.521v-5.476a2.044,2.044,0,0,0-.527-1.547,1.881,1.881,0,0,0-1.354-.5,2.092,2.092,0,0,0-1.538.593,2.407,2.407,0,0,0-.606,1.762V330h-1.521v-8.64h1.521v1.107a2.882,2.882,0,0,1,2.557-1.274Zm7.919,8.974a2.941,2.941,0,0,1-1.894-.593,2.129,2.129,0,0,1-.743-1.771,2.527,2.527,0,0,1,.237-1.129,1.99,1.99,0,0,1,.7-.787,4.239,4.239,0,0,1,1.015-.488,9.4,9.4,0,0,1,1.314-.312l1.4-.229q.765-.141.765-.8a1.51,1.51,0,0,0-.541-1.288,2.206,2.206,0,0,0-1.367-.409,2.24,2.24,0,0,0-1.354.4,1.655,1.655,0,0,0-.642,1.213l-1.371-.29a2.639,2.639,0,0,1,1.081-1.85,4.037,4.037,0,0,1,2.355-.62,4.81,4.81,0,0,1,1.252.154,3.4,3.4,0,0,1,1.046.483,2.177,2.177,0,0,1,.747.932,3.47,3.47,0,0,1,.268,1.419v3.568a1.463,1.463,0,0,0,.2.9.857.857,0,0,0,.681.233h.141V330h-.756a1.442,1.442,0,0,1-1.635-1.169h-.07a3.3,3.3,0,0,1-2.83,1.336Zm.352-1.23a2.3,2.3,0,0,0,1.854-.835,3.439,3.439,0,0,0,.7-2.285l-2.285.439a3.082,3.082,0,0,0-1.34.479,1.114,1.114,0,0,0-.435.945,1.1,1.1,0,0,0,.417.949,1.788,1.788,0,0,0,1.087.307Zm7.866-9.606A1.035,1.035,0,0,1,490.6,318.3a.974.974,0,0,1,.3-.721,1,1,0,0,1,.725-.3.985.985,0,0,1,.716.3.974.974,0,0,1,.3.721.988.988,0,0,1-.3.725.977.977,0,0,1-.716.3Zm-2.769,14.713v-1.294a2.469,2.469,0,0,0,1.242-.251,1.347,1.347,0,0,0,.58-.844,7.084,7.084,0,0,0,.167-1.784V321.36h1.538v8.517a5.023,5.023,0,0,1-.8,3.226,3.415,3.415,0,0,1-2.728.94Zm14.186-8.534-.018.413h-6.75a3.053,3.053,0,0,0,.826,2.21,2.715,2.715,0,0,0,1.969.769,2.59,2.59,0,0,0,1.433-.413,2.681,2.681,0,0,0,.984-1.143l1.371.29a3.9,3.9,0,0,1-1.477,1.854,4.025,4.025,0,0,1-2.294.677,4.171,4.171,0,0,1-3.111-1.2,5.131,5.131,0,0,1,0-6.568,4.123,4.123,0,0,1,3.063-1.2,3.9,3.9,0,0,1,2.9,1.107,4.376,4.376,0,0,1,1.1,3.2Zm-4-3.146a2.692,2.692,0,0,0-1.8.611,2.8,2.8,0,0,0-.91,1.78h5.177a2.567,2.567,0,0,0-.756-1.78,2.437,2.437,0,0,0-1.712-.614Z" transform="translate(418 5805)" fill="#00223d"/>
      <path id="Trazado_27799" data-name="Trazado 27799" d="M67,61H711v42H67Z" transform="translate(418 5805)" fill="#6bbcb1"/>
      <path id="Trazado_27800" data-name="Trazado 27800" d="M243.136,75.3h2.408V88h-2.522V77.9L240.1,80.617v-2.6Zm28.758,2.32h-4.711V80.5h4.175v2.3h-4.175v2.874h4.711V88h-7.365V75.3h7.365ZM273.221,88l4.948-6.627L273.361,75.3h3.208l3.164,4.166L282.9,75.3h3.208L281.3,81.373,286.246,88h-3.357l-3.155-4.491L276.578,88ZM295.51,75.3v2.32H292.5V88h-2.61V77.62h-3.032V75.3Zm1.081,12.876a1.456,1.456,0,0,1-1.441-1.441,1.409,1.409,0,0,1,.426-1.028,1.376,1.376,0,0,1,1.015-.431,1.472,1.472,0,0,1,1.459,1.459,1.376,1.376,0,0,1-.431,1.015,1.409,1.409,0,0,1-1.028.426Zm14.854,0a7.106,7.106,0,0,1-2.588-.466,6.077,6.077,0,0,1-2.061-1.3,5.859,5.859,0,0,1-1.354-2.065,7.185,7.185,0,0,1-.492-2.7,6.868,6.868,0,0,1,.844-3.45,5.739,5.739,0,0,1,2.316-2.281,6.926,6.926,0,0,1,3.335-.791,6.739,6.739,0,0,1,3.727,1.028,5.63,5.63,0,0,1,2.276,2.83l-2.461.9a3.479,3.479,0,0,0-1.362-1.714,3.886,3.886,0,0,0-2.18-.615,3.731,3.731,0,0,0-2.777,1.107,4.641,4.641,0,0,0,0,5.981,3.729,3.729,0,0,0,2.773,1.112,3.88,3.88,0,0,0,2.175-.62,3.5,3.5,0,0,0,1.367-1.718l2.461.9a5.653,5.653,0,0,1-2.276,2.834,6.715,6.715,0,0,1-3.728,1.028ZM328.108,88l-.923-2.619H321.85L320.928,88h-2.7L322.9,75.3h3.226L330.807,88Zm-5.484-4.825h3.788l-1.89-5.388Zm14.309,5a6.137,6.137,0,0,1-3.524-.971,3.9,3.9,0,0,1-1.714-2.72l2.725-.624a2.313,2.313,0,0,0,.839,1.6,2.787,2.787,0,0,0,1.78.558,2.3,2.3,0,0,0,1.389-.391,1.318,1.318,0,0,0,.527-1.156,1.232,1.232,0,0,0-.448-.94,2.925,2.925,0,0,0-.892-.576q-.444-.171-1.428-.47c-.088-.029-.152-.05-.193-.062q-.5-.157-.809-.264t-.76-.294a5.083,5.083,0,0,1-.738-.369,5.428,5.428,0,0,1-.611-.457,2.391,2.391,0,0,1-.51-.584,3.119,3.119,0,0,1-.308-.729,3.218,3.218,0,0,1-.123-.9,3.4,3.4,0,0,1,.593-2,3.636,3.636,0,0,1,1.6-1.274,5.815,5.815,0,0,1,2.29-.426,7.27,7.27,0,0,1,1.657.185,5.785,5.785,0,0,1,1.481.567,3.629,3.629,0,0,1,1.182,1.046,3.93,3.93,0,0,1,.672,1.542l-2.55.639a2.065,2.065,0,0,0-2.285-1.819h0a2.5,2.5,0,0,0-1.415.369,1.251,1.251,0,0,0-.554,1.116q0,.694.923,1.125a13.792,13.792,0,0,0,1.767.606q.519.157.844.264c.217.071.489.173.817.308a5.691,5.691,0,0,1,.8.391,5.917,5.917,0,0,1,.668.488,2.631,2.631,0,0,1,.567.633,3.434,3.434,0,0,1,.347.787,3.286,3.286,0,0,1,.141.98,3.852,3.852,0,0,1-.255,1.433,3.128,3.128,0,0,1-.7,1.081,4.05,4.05,0,0,1-1.05.743,5.1,5.1,0,0,1-1.292.439,7.43,7.43,0,0,1-1.45.132ZM352.612,88l-.923-2.619h-5.335L345.432,88h-2.7l4.676-12.7h3.226L355.311,88Zm-5.484-4.825h3.788l-1.89-5.388Zm8.227,8.4L364.117,74.5H366.5l-8.754,17.077ZM375.3,75.3v2.32h-3.015V88h-2.61V77.62H366.64V75.3Zm9.36,2.32h-4.711V80.5h4.175v2.3h-4.175v2.874h4.711V88H377.3V75.3h7.365ZM394.079,88l-3.3-5.59h-.765V88h-2.637V75.3h4.6a5.317,5.317,0,0,1,1.846.294,3.184,3.184,0,0,1,1.279.817,3.5,3.5,0,0,1,.721,1.2,4.388,4.388,0,0,1,.242,1.485,3.1,3.1,0,0,1-.694,2.087,3.5,3.5,0,0,1-2,1.094L397.2,88ZM390.01,77.488v3.033h1.556q1.979,0,1.978-1.512a1.378,1.378,0,0,0-.483-1.116,2.3,2.3,0,0,0-1.494-.4ZM405.839,88l-3.3-5.59h-.765V88h-2.637V75.3h4.605a5.317,5.317,0,0,1,1.846.294,3.184,3.184,0,0,1,1.279.817,3.5,3.5,0,0,1,.721,1.2,4.388,4.388,0,0,1,.242,1.485,3.1,3.1,0,0,1-.694,2.087,3.5,3.5,0,0,1-2,1.094L408.959,88ZM401.77,77.488v3.033h1.556q1.979,0,1.978-1.512a1.378,1.378,0,0,0-.483-1.116,2.3,2.3,0,0,0-1.494-.4ZM419.5,88l-.923-2.619h-5.335L412.316,88h-2.7l4.676-12.7h3.226L422.2,88Zm-5.484-4.825H417.8l-1.89-5.388Zm12.4,2.5h6.1V88h-9.255V85.917l6.021-8.3H423.27V75.3h9.13v2.083ZM443.43,88l-.923-2.619h-5.335L436.249,88h-2.7l4.676-12.7h3.226L446.128,88Zm-5.484-4.825h3.788l-1.89-5.388Zm19.081,1.2V82.261h6.3v2.118ZM484.281,75.3h2.628V88h-3.05l-5.625-9.079V88h-2.628V75.3h3.015l5.66,9.026Zm11.54,12.876a6.906,6.906,0,0,1-3.335-.8,5.768,5.768,0,0,1-2.316-2.29,7.463,7.463,0,0,1,0-6.895,5.739,5.739,0,0,1,2.316-2.281,7.418,7.418,0,0,1,6.667,0,5.749,5.749,0,0,1,2.311,2.29,7.463,7.463,0,0,1,0,6.9,5.768,5.768,0,0,1-2.316,2.29A6.892,6.892,0,0,1,495.821,88.176Zm-2.777-3.529a4.024,4.024,0,0,0,5.555,0,4.657,4.657,0,0,0,0-5.988,3.878,3.878,0,0,0-6.645,2.988A4.1,4.1,0,0,0,493.044,84.647Zm17.314,3.529a7.106,7.106,0,0,1-2.588-.466,6.077,6.077,0,0,1-2.061-1.3,5.859,5.859,0,0,1-1.354-2.065,7.185,7.185,0,0,1-.492-2.7,6.868,6.868,0,0,1,.844-3.45,5.739,5.739,0,0,1,2.316-2.281,6.925,6.925,0,0,1,3.335-.791,6.739,6.739,0,0,1,3.727,1.028,5.631,5.631,0,0,1,2.276,2.83l-2.461.9a3.479,3.479,0,0,0-1.362-1.714,3.886,3.886,0,0,0-2.18-.615,3.731,3.731,0,0,0-2.777,1.107,4.641,4.641,0,0,0,0,5.981,3.729,3.729,0,0,0,2.773,1.112,3.88,3.88,0,0,0,2.175-.62,3.5,3.5,0,0,0,1.367-1.718l2.461.9a5.654,5.654,0,0,1-2.276,2.834A6.723,6.723,0,0,1,510.358,88.176ZM526.53,75.3h2.637V88H526.53V82.779h-5.37V88h-2.637V75.3h2.637v5.185h5.37Zm13.289,2.32h-4.711V80.5h4.175v2.3h-4.175v2.874h4.711V88h-7.365V75.3h7.365Z" transform="translate(418 5805)" fill="#fff"/>
    </g>
  </g>
</svg>
